<svg version="1.1" xmlns="http://www.w3.org/2000/svg" style="display: block;" viewBox="0 0 2048 2048" width="1024" height="1024" preserveAspectRatio="none">
<defs>
	<linearGradient id="Gradient1" gradientUnits="userSpaceOnUse" x1="686.923" y1="671.021" x2="678.69" y2="675.167">
		<stop class="stop0" offset="0" stop-opacity="0" stop-color="rgb(255,255,255)"/>
		<stop class="stop1" offset="1" stop-opacity="0.0313725" stop-color="rgb(243,254,245)"/>
	</linearGradient>
	<linearGradient id="Gradient2" gradientUnits="userSpaceOnUse" x1="924.632" y1="732.49" x2="904.137" y2="740.356">
		<stop class="stop0" offset="0" stop-opacity="1" stop-color="rgb(40,46,37)"/>
		<stop class="stop1" offset="1" stop-opacity="1" stop-color="rgb(57,82,71)"/>
	</linearGradient>
	<linearGradient id="Gradient3" gradientUnits="userSpaceOnUse" x1="481.991" y1="1768" x2="457.998" y2="1776.01">
		<stop class="stop0" offset="0" stop-opacity="1" stop-color="rgb(41,54,49)"/>
		<stop class="stop1" offset="1" stop-opacity="1" stop-color="rgb(47,79,63)"/>
	</linearGradient>
	<linearGradient id="Gradient4" gradientUnits="userSpaceOnUse" x1="878.585" y1="976.529" x2="872.264" y2="1017.45">
		<stop class="stop0" offset="0" stop-opacity="1" stop-color="rgb(49,60,52)"/>
		<stop class="stop1" offset="1" stop-opacity="1" stop-color="rgb(58,82,65)"/>
	</linearGradient>
	<linearGradient id="Gradient5" gradientUnits="userSpaceOnUse" x1="813.672" y1="1757.74" x2="780.413" y2="1784.82">
		<stop class="stop0" offset="0" stop-opacity="1" stop-color="rgb(38,64,49)"/>
		<stop class="stop1" offset="1" stop-opacity="1" stop-color="rgb(56,67,64)"/>
	</linearGradient>
	<linearGradient id="Gradient6" gradientUnits="userSpaceOnUse" x1="1087.79" y1="906.558" x2="1133.53" y2="936.627">
		<stop class="stop0" offset="0" stop-opacity="1" stop-color="rgb(42,56,47)"/>
		<stop class="stop1" offset="1" stop-opacity="1" stop-color="rgb(45,79,60)"/>
	</linearGradient>
	<linearGradient id="Gradient7" gradientUnits="userSpaceOnUse" x1="1049.05" y1="471.554" x2="1043.77" y2="480.115">
		<stop class="stop0" offset="0" stop-opacity="0" stop-color="rgb(255,255,255)"/>
		<stop class="stop1" offset="1" stop-opacity="0.0313725" stop-color="rgb(245,253,244)"/>
	</linearGradient>
</defs>
<path transform="translate(0,0)" fill="rgb(47,82,60)" d="M 961.096 299.491 C 972.501 309.198 995.326 333.702 1006.72 345.341 C 1008.77 333.318 1009.96 321.356 1012.26 309.228 C 1033.48 314.022 1049.9 324.951 1065.17 340.304 C 1068.61 335.352 1072.18 329.727 1076.53 325.626 L 1077.38 326.257 C 1100.91 343.455 1111.2 366.837 1115.9 394.735 C 1124.85 378.665 1138.09 367.701 1154.63 360.081 C 1166.2 370.928 1171.65 386.218 1176.49 400.879 C 1177.04 407.348 1177.55 428.498 1182.17 431.895 C 1181.52 432.775 1179.68 434.646 1179.52 435.644 C 1177.08 450.824 1173.1 464.554 1168.45 479.214 C 1183.97 467.419 1191.96 462.632 1211.28 458.108 C 1211.96 460.062 1212.59 462.033 1213.17 464.02 C 1224.46 503.259 1212.6 551.528 1188.71 583.599 C 1171.22 607.073 1155.89 621.345 1141.11 648.133 C 1140.83 621.112 1136.05 599.598 1148.4 573.551 C 1154.21 561.295 1190.38 514.281 1187.48 504.86 C 1169.94 535.807 1151.19 545.222 1135.59 580.152 C 1126.17 546.112 1109.85 509.771 1120.79 474.21 C 1126.21 456.577 1145.69 419.988 1145.8 403.206 L 1144.95 403.492 C 1139.23 429.196 1113.49 458.771 1109.23 485.717 C 1091.78 445.628 1077.94 416.584 1055.45 379.322 L 1050.1 370.848 C 1048.46 367.765 1048.53 367.585 1045.94 365.039 C 1045.58 367.143 1047.18 368.652 1048.61 371.064 C 1049.78 373.471 1052.12 378.753 1053.35 380.833 C 1089.61 460.827 1119.35 532.439 1129.99 620.654 C 1136.44 674.08 1134.27 700.486 1117.68 752.171 C 1176.45 705.846 1217.91 648.568 1261.24 588.696 C 1295.25 541.711 1343.91 493.827 1392.37 461.221 C 1395.25 459.582 1397.62 458.581 1399.67 456.013 C 1396.96 455.859 1393.51 458.327 1390.94 459.804 C 1353.05 480.081 1315.12 508.161 1286.88 540.621 C 1287.64 520.502 1287.36 506.532 1286.14 486.397 C 1286.78 479.657 1287.24 474.14 1287.39 467.375 L 1286.64 467.487 L 1285.17 472.482 L 1284.81 473.802 C 1277.75 500.517 1285.28 534.206 1271.64 558.149 C 1267.62 565.203 1253.95 577.939 1248.01 585.584 C 1244.1 532.721 1236.72 487.078 1275.34 443.925 C 1279.59 439.182 1292.78 425.001 1298.6 423.332 C 1308.12 425.984 1313.32 451.66 1315.51 460.472 C 1327.83 438.408 1344.18 424.138 1368.89 417.208 C 1369.67 416.991 1370.45 416.784 1371.23 416.585 C 1373.04 422.327 1374.7 428.111 1376.23 433.932 C 1405.99 424.05 1419.33 421.754 1450.76 426.664 C 1438.98 467.244 1430.44 495.413 1394.3 519.884 C 1415.53 520.024 1429.24 526.291 1446.75 538.548 C 1430.46 566.682 1406.78 583.364 1375.68 591.636 C 1364.04 594.753 1352.15 596.852 1340.15 597.91 C 1320.94 599.515 1300.76 598.424 1282.96 606.926 C 1256.99 619.324 1235.8 659.495 1218.91 683.469 C 1209.25 697.281 1198.69 710.444 1187.3 722.875 C 1154.35 758.017 1118.08 789.894 1078.99 818.063 C 1121.25 807.23 1147.98 814.527 1187.46 810.93 C 1211.67 808.725 1251.47 785.037 1277.96 777.08 C 1277.82 782.641 1278.62 788.184 1280.33 793.479 C 1257.34 803.447 1242.9 810.989 1221.33 821.54 C 1239.41 829.853 1259.41 838.322 1275.16 850.439 C 1270.3 854.87 1266.35 860.202 1263.53 866.139 C 1241.41 851.159 1224.91 843.618 1198.75 838.858 C 1217.93 866.34 1221.9 883.626 1228.73 916.328 C 1221.99 914.636 1214.97 914.334 1208.1 915.441 C 1202.3 878.92 1195.75 850.732 1155.94 838.102 C 1135.04 831.47 1118.48 834.482 1097.23 837.682 C 1047.86 845.12 1006.73 865.575 963.369 888.987 C 979.9 891.186 987.446 893.575 1002.41 900.997 L 997.378 908.797 C 982.719 909.767 968.342 909.667 953.663 911.314 C 901.704 917.142 858.063 949.616 819.284 982.319 C 801.113 997.642 784.88 1012.09 770.136 1030.99 C 786.996 1027.8 802.63 1025.68 819.866 1026.05 C 896.401 1027.69 971.645 1073.08 1032.34 1116.41 C 1045.22 1125.63 1058.04 1134.94 1070.81 1144.32 C 1076.43 1148.47 1081.18 1152.89 1086.94 1156.72 L 1088.04 1156.48 C 1085.21 1153.15 1075.22 1144.55 1071.41 1141.06 C 1054.2 1125.27 1036.6 1109.9 1018.62 1094.98 C 1045.41 1089.41 1062.41 1090 1089.44 1093.14 C 1052.96 1079.63 1035.47 1086.95 1004.65 1082.68 C 994.926 1081.34 943.495 1048.77 929.619 1041.4 C 958.174 1039.12 973.546 1031.58 1000.27 1023.11 C 1010.2 1019.97 1024.35 1017.18 1034.78 1015 C 1025.53 1014.74 1015.23 1014.38 1006.34 1015.88 C 966.302 1022.64 936.508 1041.88 895.083 1027.45 C 887.843 1024.93 881.391 1023.32 873.945 1019.74 C 903.412 999.616 963.267 978.778 999.055 980.402 C 1022.86 981.483 1069.16 996.638 1085.03 1014.15 C 1085.65 1025.57 1057.31 1041.97 1048.33 1047.46 C 1087.16 1053.01 1117.13 1072.75 1134.28 1108.29 C 1125.08 1113.56 1116.66 1117.12 1107 1121.29 C 1131.71 1151.41 1138.54 1172.28 1144.23 1209.81 C 1106.12 1211.04 1082.6 1205.59 1050.51 1186.04 C 1051.34 1202.66 1051.06 1209.06 1048.48 1225.48 C 1043.3 1224.7 1038.15 1223.68 1033.07 1222.41 C 1001.14 1214.34 983.795 1197.49 967.534 1170.05 C 965.446 1188.11 960.869 1204.35 954.615 1221.37 C 905.274 1197.21 875.985 1163.78 867.508 1109.76 C 864.234 1095.36 863.056 1079.26 856.887 1065.83 C 840.809 1031.54 795.01 1044.46 769.16 1056.87 C 723.413 1078.83 706.482 1119.64 692.776 1165.44 C 691.306 1170.35 688.489 1178.84 683.864 1181.12 C 680.992 1180.7 678.962 1178.63 677.15 1176.49 C 665.519 1162.78 653.348 1129.81 657.137 1112 C 665.105 1074.55 696.496 1039.4 720.177 1010.17 C 729.54 998.617 740.698 988.644 748.304 975.726 C 759.963 956.453 770.324 922.94 770.565 900.54 C 771.275 834.456 741.289 756.194 705.579 700.947 C 701.079 693.985 691.606 678.386 686.664 672.854 C 680.165 661.401 668.733 648.221 660.157 637.956 L 659.461 637.852 C 662.53 643.928 693.34 696.939 697.362 701.378 C 704.869 717.704 711.123 727.29 718.37 745.553 C 686.398 730.512 662.139 728.901 631.916 713.607 C 661.247 737.617 706.42 739.572 728.766 769.427 C 739.777 784.137 746.907 817.559 750.669 836.247 C 710.851 808.414 678.373 818.471 637.707 809.036 C 673.076 827.259 717.081 817.555 747.825 846.48 C 758.616 856.634 757.187 872.14 756.932 885.869 C 738.405 875.512 718.526 877.129 697.991 874.436 C 644.154 867.378 607.636 836.653 589.615 785.678 C 607.704 774.337 621.297 772.492 642.188 769.923 C 606.627 748.631 595.501 725.915 591.977 685.627 L 595.994 684.656 C 610.155 681.186 619.132 681.962 633.662 682.147 C 617.095 651.068 616.963 622.766 625.052 589.327 C 631.901 589.99 639.866 592.27 646.37 594.488 C 685.83 607.944 702.935 618.315 721.683 654.745 C 728.958 640.102 735.582 628.884 747.875 618.033 C 751.786 621.34 755.498 624.875 758.992 628.619 C 784.701 656.22 789.121 684.042 787.858 720.32 C 799.661 706.367 814.437 695.233 831.104 687.735 C 853.874 727.818 853.217 779.859 829.598 819.539 C 819.857 835.904 799.887 859.529 794.326 876.884 C 786.427 901.537 790.098 923.542 783.185 951.725 C 830.374 923.199 876.517 891.325 889.331 836.165 C 890.857 829.594 893.136 819.455 900.931 818.601 C 912.404 824.606 900.018 869.776 897.134 880.371 L 914.79 872.062 C 936.728 861.374 958.448 850.245 979.937 838.682 C 1034.12 810.16 1085.24 782.733 1105.95 721.01 C 1139.81 620.103 1061.99 631.193 1002.95 587.056 C 986.222 574.551 971.98 551.731 962.994 533.003 C 980.289 523.424 996.698 518.647 1016.49 518.981 C 1013.79 517.308 1011.13 515.553 1008.53 513.719 C 969.419 486.151 964.306 466.807 956.455 421.782 C 978.309 415.903 990.631 415.295 1011.96 421.201 C 999.87 402.333 999.69 390.237 993.037 371.045 C 991.414 366.361 967.644 343.053 962.042 336.994 C 950.676 359.789 931.699 408.928 923.205 433.392 C 926.351 440.636 931.823 448.704 936.121 455.504 C 913.923 479.232 889.97 502.165 867.948 526.182 C 863.67 530.847 858.969 535.503 854.372 539.856 C 873.575 512.956 894.343 481.993 912.685 454.414 C 910.371 451.072 907.232 447.254 905.895 443.406 C 901.792 431.594 930.66 375.609 937.351 360.929 C 908.9 395.388 872.949 435.471 842.897 468.937 C 829.892 457.488 811.931 440.698 798.538 430.552 C 792.469 440.164 789.723 449.146 784.927 458.844 C 773.094 482.775 761.221 517.697 748.145 539.744 C 754.267 513.84 761.037 488.093 768.448 462.527 C 752.262 482.617 734.403 501.76 717.753 521.492 C 699.081 543.619 681.055 566.253 662.399 588.403 C 655.897 586.562 647.425 583.247 640.898 580.895 C 644.305 574.344 649.56 566.528 653.594 560.16 C 649.475 556.107 643.047 551.134 638.441 547.367 C 616.468 581.61 601.288 606.144 583.815 643.79 C 593.096 633.909 601.017 624.03 610.946 614.447 C 610.858 622.769 610.414 630.14 609.84 638.454 C 602.88 647.268 573.361 672.337 570.442 680.706 C 529.634 797.712 554.352 932.134 618.184 1036.39 C 622.575 1043.56 641.597 1070.55 641.258 1073.88 L 639.501 1073.53 C 624.501 1060.68 612.747 1045.18 601.699 1028.88 C 558.795 965.569 536.648 899.834 530.73 823.814 C 523.039 710.446 560.045 598.572 633.822 512.152 C 646.321 520.604 657.111 530.675 669.43 539.316 C 710.516 489.925 752.25 441.076 794.621 392.782 C 806.124 400.803 829.114 422.199 840.353 432.256 C 849.221 420.53 871.564 397.157 882.237 385.381 C 908.231 356.484 934.518 327.852 961.096 299.491 z M 931.391 1165.4 C 926.093 1144.08 925.05 1124.47 921.73 1102.97 C 919.098 1085.93 914.835 1066.96 896.386 1061.95 C 904.036 1072.85 906.556 1077.6 910.76 1089.98 C 915.995 1105.4 921.398 1154.43 931.391 1165.4 z M 1106.79 600.354 C 1082.2 562.003 1057.76 560.296 1016.31 553.25 C 1030.94 562.281 1054.53 565.97 1070.58 574.486 C 1081.16 580.097 1088.62 585.138 1098.01 592.958 C 1100.49 595.021 1104.36 598.87 1106.79 600.354 z M 780.071 825.879 C 791.948 794.939 813.031 768.269 818.581 738.511 C 818.839 736.367 818.844 734.39 818.913 732.235 L 818.083 731.875 L 816.429 736.03 C 813.42 755.734 795.592 775.054 787.526 792.54 C 782.522 803.391 781.474 814.168 780.071 825.879 z M 1078.65 496.251 L 1087.74 505.182 L 1082.37 495.293 C 1067.39 473.954 1033.78 468.38 1009.87 458.65 C 1009.59 458.633 1009.31 458.617 1009.03 458.6 C 1013.05 463.648 1054.26 481.703 1062.25 485.678 C 1068.28 488.677 1073 492.375 1078.65 496.251 z M 1353.75 559.104 C 1372.13 559.413 1378.46 558.791 1396.03 553.34 C 1369.86 556.742 1359.43 552.02 1336.6 553.19 C 1321.38 556.214 1315.54 559.054 1302.49 567.638 C 1324.58 559.026 1330.18 559.677 1353.75 559.104 z M 981.788 1100.86 C 988.799 1111.57 991.394 1117.27 995.825 1129.31 C 1002.15 1150.8 1004.06 1161.15 1016.02 1180.32 C 1010.57 1162.38 1007.37 1143.96 1001.85 1126.62 C 997.056 1114.5 991.16 1109.25 981.788 1100.86 z M 749.365 664.783 C 748.153 686.603 734.491 712.002 741.815 732.392 C 744.223 718.055 755.933 675.912 749.365 664.783 z M 747.882 1006.92 C 721.633 1032.38 710.344 1045.23 693.168 1077.62 L 694.095 1078.64 C 704.803 1060.86 733.519 1024.67 748.08 1008.99 L 748.334 1007.34 L 747.882 1006.92 z"/>
<path transform="translate(0,0)" fill="url(#Gradient7)" d="M 1078.65 496.251 C 1073 492.375 1068.28 488.677 1062.25 485.678 C 1054.26 481.703 1013.05 463.648 1009.03 458.6 C 1009.31 458.617 1009.59 458.633 1009.87 458.65 C 1033.78 468.38 1067.39 473.954 1082.37 495.293 L 1078.65 496.251 z"/>
<path transform="translate(0,0)" fill="rgb(139,146,139)" fill-opacity="0.0117647" d="M 1336.6 553.19 C 1359.43 552.02 1369.86 556.742 1396.03 553.34 C 1378.46 558.791 1372.13 559.413 1353.75 559.104 C 1330.18 559.677 1324.58 559.026 1302.49 567.638 C 1315.54 559.054 1321.38 556.214 1336.6 553.19 z"/>
<path transform="translate(0,0)" fill="rgb(239,250,241)" fill-opacity="0.027451" d="M 747.882 1006.92 L 748.334 1007.34 L 748.08 1008.99 C 733.519 1024.67 704.803 1060.86 694.095 1078.64 L 693.168 1077.62 C 710.344 1045.23 721.633 1032.38 747.882 1006.92 z"/>
<path transform="translate(0,0)" fill="rgb(239,250,241)" fill-opacity="0.0156863" d="M 981.788 1100.86 C 991.16 1109.25 997.056 1114.5 1001.85 1126.62 C 999.756 1127.74 998.006 1128.41 995.825 1129.31 C 991.394 1117.27 988.799 1111.57 981.788 1100.86 z"/>
<path transform="translate(0,0)" fill="rgb(239,250,241)" fill-opacity="0.0352941" d="M 1078.65 496.251 L 1082.37 495.293 L 1087.74 505.182 L 1078.65 496.251 z"/>
<path transform="translate(0,0)" fill="rgb(170,199,177)" fill-opacity="0.105882" d="M 816.429 736.03 L 818.083 731.875 L 818.913 732.235 C 818.844 734.39 818.839 736.367 818.581 738.511 L 816.429 736.03 z"/>
<path transform="translate(0,0)" fill="rgb(47,82,60)" d="M 1450.61 552.663 C 1543.9 698.782 1542.74 883.747 1440.05 1025.1 C 1422.19 1049.69 1411.22 1064.54 1387.23 1084.25 L 1384.72 1081.7 C 1487.75 968.349 1528.48 797.302 1472.05 652.504 C 1468.29 642.845 1437.55 621.779 1427.99 615.39 C 1458.08 686.282 1467.57 757.525 1460.51 833.876 C 1454.37 819.521 1453.33 817.092 1443.05 805.652 C 1441.85 791.754 1443.31 772.994 1440.73 760.725 C 1407.81 718.791 1297.98 676.582 1246.66 670.308 L 1245.56 670.18 C 1249.27 663.393 1250.74 660.611 1255.54 654.62 C 1284.17 660.096 1304.29 664.506 1331.83 651.48 C 1362.27 637.087 1381.31 634.497 1414.22 642.188 C 1408.82 628.715 1400.86 607.4 1394.2 595.352 C 1404.08 593.865 1416.96 586.183 1425.17 580.542 C 1433.89 593.684 1443.73 603.675 1454.95 614.714 C 1447.17 599.298 1441.52 588.68 1431.64 574.217 C 1438.73 566.819 1444.11 560.492 1450.61 552.663 z M 1322.5 674.009 C 1352.41 685.467 1382.47 696.569 1409.47 714.176 C 1419.75 720.666 1429.8 727.52 1439.6 734.726 C 1430.19 688.107 1433.8 649.814 1373.16 655.199 C 1354.49 659.082 1339.89 666.459 1322.5 674.009 z"/>
<path transform="translate(0,0)" fill="rgb(47,82,60)" d="M 1348.45 1300.82 C 1398.71 1297.22 1442.31 1335.17 1445.67 1385.44 C 1449.04 1435.71 1410.88 1479.13 1360.59 1482.26 C 1310.64 1485.36 1267.57 1447.51 1264.23 1397.58 C 1260.89 1347.64 1298.54 1304.4 1348.45 1300.82 z M 1357.22 1450.75 C 1396.52 1444.61 1399.78 1404.79 1395.13 1372.8 C 1391.91 1350.63 1375.97 1330.88 1352.15 1331.3 C 1319.78 1337.58 1312.01 1362.66 1312.47 1391.8 C 1312.96 1423.42 1321.25 1448.3 1357.22 1450.75 z"/>
<path transform="translate(0,0)" fill="rgb(47,82,60)" d="M 787.329 1427.43 C 792.796 1397.13 808.048 1361.88 811.378 1330.25 C 812.239 1322.08 800.833 1314.06 801.383 1306.71 L 803.122 1305.59 C 811.571 1305.82 821.39 1305.59 829.661 1305.9 C 835.582 1306.13 862.736 1304.28 865.405 1306.58 C 866.22 1315.96 855.633 1319.87 851.786 1328.34 C 848.223 1336.19 845.568 1345.16 842.902 1353.36 L 805.203 1476.98 C 788.855 1476.5 773.174 1476.72 756.817 1476.97 L 737.527 1412.46 C 734.13 1401.14 728.241 1382.96 726.338 1371.84 C 715.98 1401.11 704.599 1446.23 695.979 1476.99 C 680.151 1477.26 664.319 1477.27 648.49 1477.02 C 643.768 1466.8 639.213 1450.59 635.523 1439.47 C 624.173 1405.15 614.016 1370.39 602.49 1336.13 C 600.58 1330.9 598.667 1326.78 595.111 1322.46 C 591.147 1317.65 584.171 1313.27 587.394 1306.71 C 591.435 1305.05 638.296 1306.06 647.232 1305.55 C 652.086 1305.24 658.955 1303.66 661.56 1308.21 C 660.116 1313.55 654.341 1316.81 651.512 1321.45 C 646.33 1329.95 672.633 1411.9 677.264 1428.1 C 686.714 1389.05 700.092 1344.46 711.114 1305.65 C 724.403 1306.11 738.589 1305.99 752.02 1306.25 C 755.035 1319.41 760.986 1337.57 764.894 1350.84 L 787.329 1427.43 z"/>
<path transform="translate(0,0)" fill="rgb(47,82,60)" d="M 1469.65 1305.11 C 1507.41 1308.32 1548.55 1301.84 1585.39 1308.72 C 1609.42 1314.96 1628.22 1330.79 1627.68 1357.16 C 1627.13 1383.79 1616.1 1393.12 1593.79 1404.37 C 1613.88 1424.57 1615.12 1449.49 1636.76 1465.29 C 1640.07 1467.71 1639.54 1466.66 1642.63 1470.04 C 1643.66 1474.03 1643.59 1472.03 1642.54 1476.26 C 1637.89 1479.1 1624.9 1478.91 1619.3 1479.14 C 1607.07 1479.64 1596.22 1478.62 1585.49 1472.2 C 1571.5 1458.62 1562.19 1431.02 1553.04 1412 L 1528.85 1411.96 C 1528.56 1425.93 1526.13 1445.12 1532.21 1457.64 C 1534.7 1462.77 1544.8 1469.59 1543.57 1474.74 C 1537.37 1478.54 1478.92 1477.78 1470.32 1476.29 C 1468.46 1466.68 1483.75 1458.85 1483.48 1441.84 C 1482.91 1404.68 1485.52 1366.09 1481.75 1329.1 C 1480.63 1318.09 1469.09 1319.91 1469.65 1305.11 z M 1529.05 1384.29 C 1544.74 1384.5 1560.71 1386.59 1573.96 1377.68 C 1580.43 1369.12 1582.13 1363.84 1580.86 1353.05 C 1577.86 1327.52 1545.74 1333.74 1529.05 1333.1 C 1528.99 1350 1528.72 1367.43 1529.05 1384.29 z"/>
<path transform="translate(0,0)" fill="rgb(47,82,60)" d="M 807.577 517.822 C 819.158 519.407 833.916 536.858 842.532 545.386 C 854.41 557.312 866.688 568.831 879.346 579.925 C 892.651 572.675 904.316 559.593 917.132 551.062 C 921.303 553.625 926.921 557.849 930.507 561.185 C 950.29 579.587 970.054 596.002 991.795 612.06 C 1005.87 622.453 1016.77 636.97 1034.3 643.509 C 1041.92 646.768 1052.87 650.1 1061.15 650.389 C 1082.91 651.151 1091.49 645.945 1101.68 668.703 C 1064.07 674.12 1034.12 678.569 998.307 690.769 C 885.555 729.177 972.184 739.589 1027.5 756.929 C 1038.08 760.248 1052.1 765.204 1062.61 769.052 C 1057.58 775.176 1055.74 777.231 1049.56 782.056 C 1021.61 768.191 940.917 757.437 927.028 732.851 C 924.441 728.273 923.896 723.039 925.553 718.041 C 934.618 690.69 987.679 683.548 1010.94 671.667 C 1011.25 671.509 1011.55 671.342 1011.86 671.179 C 986.37 675.707 962.45 681.594 937.973 690.117 C 914.834 698.173 889.185 707.556 882.783 733.843 C 891.054 771.493 947.038 778.81 977.254 791.373 C 989.045 796.275 996.855 801.563 1006.52 809.724 C 1000.45 814.245 995.398 816.451 988.569 819.484 C 982.394 815.209 977.253 812.507 970.616 808.937 C 935.816 791.849 871.051 781.574 867.297 733.36 C 865.486 710.099 902.374 690.002 920.724 684.284 C 947.19 676.037 1002.62 657.249 1029.35 658.359 C 1004.58 647.993 1002.1 641.332 981.708 625.864 C 958.934 608.586 938.881 589.521 916.794 571.876 C 912.688 575.458 907.562 579.635 903.827 583.484 C 871.956 616.32 837.424 644.964 803.09 675.152 C 801.854 670.265 799.91 665.975 797.997 661.316 C 821.556 638.057 845.89 616.274 869.002 593.534 C 859.973 586.405 851.803 579.961 843.419 572.035 C 834.241 563.357 824.836 552.404 815.042 544.746 C 808.841 560.52 806.819 577.596 796.711 592.407 C 792.547 598.506 783.229 611.64 775.902 613.28 C 772.313 612.806 772.059 613.046 769.141 610.772 C 767.888 605.231 780.148 592.419 783.613 585.215 C 789.372 573.242 792.81 562.376 797.112 549.884 C 778.001 567.408 761.305 578.287 740.541 593.581 C 731.339 600.359 722.978 611.005 712.111 618.45 C 707.827 615.246 702.523 610.564 698.313 607.035 C 708.916 598.733 718.875 588.2 729.957 579.788 C 742.164 570.523 755.516 562.177 767.266 552.532 C 780.493 541.675 792.838 526.723 807.577 517.822 z"/>
<path transform="translate(0,0)" fill="rgb(47,82,60)" d="M 1658.78 1304.78 C 1674.64 1306.73 1702.29 1305.66 1719.68 1306.36 C 1744.5 1337.6 1768.12 1375.61 1791.73 1408.14 C 1789.1 1383.03 1792.66 1356.2 1788.72 1331 C 1787.07 1320.49 1772.54 1312.7 1777.14 1306.7 C 1782.04 1305.02 1837.16 1304.96 1842.07 1306.81 L 1842.36 1308.94 C 1839.92 1315.93 1832.53 1322.32 1829.93 1329.76 C 1824.88 1344.22 1831.04 1472.14 1826.99 1477.02 L 1822.25 1477.11 L 1785.54 1477.08 C 1771.49 1457.77 1757.57 1437.23 1743.85 1417.64 C 1732.78 1401.84 1719.84 1383.86 1709.98 1367.57 C 1711.78 1394.43 1709.39 1422.38 1711.67 1449.32 C 1712.64 1460.78 1723.46 1464.45 1724.76 1474.41 C 1724.88 1475.37 1724.47 1476.12 1723.85 1476.21 C 1712.96 1477.76 1668.44 1477.88 1659.9 1476.71 C 1657.15 1470.89 1674.41 1455.7 1674.05 1441.39 C 1673.14 1405.58 1675.24 1368.92 1672.69 1333.18 C 1671.87 1321.69 1660.22 1317.86 1658.78 1304.78 z"/>
<path transform="translate(0,0)" fill="rgb(47,82,60)" d="M 1181.05 1373.53 C 1181.24 1360.04 1183 1338.7 1178.31 1326.06 C 1176.38 1320.87 1164.42 1313.47 1167.4 1306.91 C 1171.43 1304.6 1239.21 1305.65 1241.08 1307.54 C 1239.02 1314.92 1226.94 1329.61 1227.03 1335.79 C 1227.58 1374.81 1225.13 1415.28 1228.46 1454.09 C 1229.2 1462.75 1243.18 1466.27 1240.72 1476.98 C 1228.39 1477.34 1179.66 1477.84 1169.12 1476.64 C 1161.98 1469.87 1178.5 1460.64 1179.72 1453.84 C 1182.47 1438.54 1181.4 1419.38 1180.97 1404.04 L 1117.88 1403.89 C 1117.74 1418.6 1116.67 1438.76 1119.1 1452.97 C 1120.2 1459.41 1132.97 1467.74 1132.12 1475.4 C 1128.26 1477.98 1065.61 1477.57 1059.5 1475.35 C 1061.37 1468.97 1072.33 1451.23 1072.3 1444.25 C 1072.1 1407.74 1073.67 1367.52 1071.03 1331.23 C 1070.2 1319.82 1058.82 1318.67 1058.14 1305.11 C 1077.51 1306.28 1114.48 1304.36 1130.71 1306.28 C 1134.94 1312.48 1127.25 1316.91 1122.79 1320.69 C 1116.69 1336.21 1118.01 1357.31 1118.24 1374.04 C 1139.17 1373.56 1160.11 1373.39 1181.05 1373.53 z"/>
<path transform="translate(0,0)" fill="rgb(47,82,60)" d="M 329.756 1373.8 C 329.79 1358.7 330.48 1345 328.04 1330.04 C 326.289 1319.29 314.033 1313.57 314.684 1306.59 C 316.131 1305.75 384.093 1305.12 389.02 1305.96 C 390.653 1314.15 375.979 1325.69 374.903 1335.58 C 373.276 1350.55 373.832 1443.07 377.177 1454.18 C 379.223 1460.97 383.738 1463.86 387.838 1469.22 C 389.513 1471.42 389.879 1472.53 389.613 1475.24 C 386.483 1477.56 386.944 1476.79 382.25 1477.05 C 375.021 1477.14 319.044 1478.72 315.623 1475.87 C 314.73 1461.85 326.856 1462.54 328.144 1451.27 C 329.779 1436.98 329.006 1418.38 328.845 1403.76 C 307.516 1403.24 286.177 1403.24 264.848 1403.77 C 264.529 1420.41 262.002 1443.55 269.381 1458.9 C 272.01 1464.37 282.564 1470.01 280.954 1476.02 C 276.5 1478.23 211.573 1478.3 206.537 1476.03 L 205.887 1474 C 207.579 1467.51 218.715 1454.76 218.813 1449.93 C 219.623 1410.26 221.952 1368.77 217.793 1329.35 C 216.768 1319.63 205.543 1316.58 205.01 1307.98 C 207.335 1305.22 205.862 1306.23 209.949 1305.44 C 226.543 1305.35 243.196 1306.24 259.834 1305.68 C 265.385 1305.49 273.175 1304.97 278.331 1306.12 C 283.656 1315.7 267.177 1319.63 265.814 1331.99 C 264.235 1346.32 264.809 1359.29 265.041 1373.66 C 276.91 1372.41 316.058 1373.69 329.756 1373.8 z"/>
<path transform="translate(0,0)" fill="rgb(47,82,60)" d="M 463.616 1305.21 C 483.149 1306.16 507.521 1305.82 527.494 1306.07 C 545.786 1352.68 562.65 1400.4 583.25 1446.12 C 585.445 1450.99 587.859 1454.78 590.804 1459.17 C 594.169 1464.17 602.34 1469.16 602.329 1475.02 L 600.678 1476.59 C 592.704 1477.5 531.608 1477.84 527.075 1475.69 C 525.792 1470.23 532.804 1462.97 536.151 1458.58 C 534.804 1452.33 532.014 1444.48 529.986 1438.24 C 529.492 1436.47 529.349 1436.63 528.285 1435.02 C 521.024 1433.61 475.812 1434.16 465.652 1434.14 C 463.137 1442.39 461.095 1449.55 459.062 1457.92 C 462.379 1462.45 468.647 1470.05 469.694 1475.04 L 468.471 1476.48 C 459.491 1477.14 408.386 1478.58 403.581 1474.93 C 403.702 1467.21 411.309 1465.34 414.702 1459.46 C 432.921 1427.88 445.053 1390.97 458.603 1357.06 C 462.871 1346.38 467.142 1334.48 470.256 1323.87 L 467.426 1318.04 C 464.582 1312.22 464.113 1311.78 463.616 1305.21 z M 475.485 1406.92 C 484.112 1406.39 490.907 1406.38 499.576 1406.52 L 518.282 1407.1 C 512.128 1390.42 502.948 1362.57 495.816 1347.45 C 490.103 1365.05 479.893 1390.37 475.485 1406.92 z"/>
<path transform="translate(0,0)" fill="rgb(47,82,60)" d="M 1027.01 1305.48 C 1031.48 1305.34 1030.53 1304.76 1034.07 1306.55 C 1035.45 1309.21 1035.17 1314.23 1035.17 1317.46 C 1035.15 1326.62 1040.95 1346.18 1035.6 1353.34 L 1033.33 1353.55 C 1028.77 1351.67 1027.47 1347.28 1024.06 1343.95 C 1013.2 1333.33 994.676 1334.01 980.837 1333.95 L 980.75 1411.7 C 980.743 1422.97 980.483 1435.2 980.659 1446.44 C 980.782 1454.24 996.137 1468.13 995.564 1475.56 C 990.492 1478.8 940.358 1476.17 931.937 1477.21 C 928.006 1477.7 920.956 1477.55 919.877 1472.59 C 921.011 1469.61 921.075 1469.22 923.429 1466.82 L 929.083 1461.05 C 937.555 1446.44 935.278 1419.49 935.153 1402.49 C 934.904 1379.74 934.796 1356.99 934.828 1334.23 C 914.708 1333.64 902.795 1333.15 887.54 1348.46 C 885.721 1350.29 883.45 1352.78 881.005 1353.31 L 879.556 1352.21 C 876.975 1344.38 880.83 1316.71 881.235 1305.6 C 929.826 1305.86 978.418 1305.82 1027.01 1305.48 z"/>
<path transform="translate(0,0)" fill="rgb(47,82,60)" d="M 1390.71 1005.58 C 1395 1005.12 1395.56 1004.34 1398.86 1005.86 C 1398.84 1006.63 1398.89 1007.7 1398.47 1008.37 C 1341.56 1100.11 1261.97 1163.82 1159.49 1197.53 C 1158.9 1189.97 1157.95 1185.73 1156.3 1178.28 C 1173.27 1171.62 1199.48 1162.76 1214.22 1153.58 C 1191.45 1151.46 1155.35 1139.72 1136.1 1127.45 C 1143.51 1123.79 1146.26 1122.45 1152.74 1117.47 C 1190.6 1136.96 1227.34 1145.06 1265.39 1122.73 C 1284.22 1107.03 1298.92 1096.9 1318.02 1079.59 C 1250.68 1102.21 1192.85 1083.97 1132.52 1052.4 C 1120.42 1046.07 1105.99 1039.01 1093 1034.91 C 1097.52 1028.76 1099.46 1026.86 1104.98 1021.56 C 1161.13 1045 1209.8 1079.06 1272.87 1071.79 C 1302.44 1068.38 1333.24 1059.14 1353.34 1035.73 C 1361.06 1026.74 1367.16 1016.25 1374.7 1007.05 L 1375.45 1006.15 C 1380.96 1006.17 1385.19 1006.24 1390.71 1005.58 z"/>
<path transform="translate(0,0)" fill="rgb(47,82,60)" d="M 1079.99 1543.25 C 1116.61 1546.05 1186.9 1529.57 1196.58 1579.98 C 1202.84 1612.58 1184.18 1634.82 1152.38 1639.77 C 1136.87 1640.82 1120.61 1640.8 1105.01 1641.02 L 1104.81 1683.04 L 1079.12 1683 C 1081.35 1637.49 1077.78 1587.86 1079.99 1543.25 z M 1105.01 1620 C 1118.2 1619.93 1139.92 1620.6 1152.2 1617.1 C 1159.59 1614.05 1167.6 1608.86 1169.54 1600.88 C 1178.32 1564.7 1146.28 1564.05 1123.99 1564.45 L 1105.04 1565 C 1105.05 1583.21 1105.27 1601.83 1105.01 1620 z"/>
<path transform="translate(0,0)" fill="rgb(47,82,60)" d="M 917.066 1543.46 C 925.597 1543.09 931.925 1543.33 940.338 1544.23 C 947.009 1555.83 954.143 1572.08 959.783 1584.37 C 969.819 1606.43 980.08 1628.39 990.565 1650.24 C 995.373 1660.52 1000.43 1672.74 1005.67 1682.5 L 978.038 1682.57 C 973.125 1672.2 968.49 1661.7 964.141 1651.09 C 955.983 1650.62 947.811 1650.46 939.642 1650.6 L 891.474 1651.16 C 886.59 1661.8 881.508 1672.34 876.232 1682.79 C 867.763 1682.08 858.444 1682.51 849.881 1682.7 C 868.104 1649.25 893.736 1581.36 914.199 1544.64 C 915.155 1544.25 916.11 1543.85 917.066 1543.46 z M 901.195 1630.11 L 930.25 1630.16 C 938.296 1630.22 946.786 1630.13 954.79 1630.43 C 948.351 1616.23 934.285 1582.82 927.224 1570.62 C 921.117 1584.12 904.526 1617.76 901.195 1630.11 z"/>
<path transform="translate(0,0)" fill="rgb(47,82,60)" d="M 1282.96 1543.41 C 1316.82 1543.77 1350.68 1543.74 1384.55 1543.32 L 1384.13 1564.02 L 1305.82 1564.15 L 1306.03 1600.98 C 1324.27 1601.35 1359.9 1599.99 1375.86 1601.76 C 1376.09 1607.92 1375.83 1615.51 1375.79 1621.79 L 1308.75 1622.35 L 1307.02 1622.33 C 1304.98 1626.03 1305.97 1655.07 1306.03 1661.64 C 1331.72 1662.3 1361.46 1662.5 1387.07 1662.2 L 1387.06 1683.15 L 1280.41 1683 L 1280.16 1590.5 C 1280.15 1580.36 1279.43 1553.5 1280.46 1544.38 L 1282.96 1543.41 z"/>
<path transform="translate(0,0)" fill="rgb(159,27,40)" d="M 1208.1 915.441 C 1214.97 914.334 1221.99 914.636 1228.73 916.328 C 1254.24 922.726 1270.77 947.393 1266.99 973.42 C 1263.21 999.447 1240.34 1018.39 1214.06 1017.26 C 1187.79 1016.13 1166.63 995.297 1165.09 969.041 C 1163.56 942.785 1182.14 919.627 1208.1 915.441 z"/>
<path transform="translate(0,0)" fill="rgb(62,60,53)" d="M 1214.37 990.019 C 1221.39 989.444 1225.83 989.946 1230.13 995.979 C 1231.01 1002.99 1226.24 1003.48 1220.42 1004.83 C 1213.96 1005.05 1203.73 1004.15 1205.27 995.354 C 1207.92 992.075 1210.28 991.65 1214.37 990.019 z"/>
<path transform="translate(0,0)" fill="rgb(246,231,238)" d="M 1210.15 932.108 C 1213.64 932.702 1213.54 932.096 1215.73 934.135 C 1213.53 938.018 1200.85 943.31 1196.39 948.25 C 1192.39 952.672 1191.88 953.622 1188.84 958.696 C 1187.9 960.551 1188.22 959.947 1186.59 961.431 L 1185.64 960.334 C 1184.29 945.134 1196.33 935.099 1210.15 932.108 z"/>
<path transform="translate(0,0)" fill="rgb(159,27,40)" d="M 1275.16 850.439 C 1294.47 832.813 1324.01 832.729 1343.41 850.247 C 1362.82 867.764 1365.76 897.156 1350.2 918.168 C 1334.64 939.179 1305.67 944.943 1283.25 931.486 C 1260.84 918.029 1252.3 889.751 1263.53 866.139 C 1266.35 860.202 1270.3 854.87 1275.16 850.439 z M 1282.11 881.395 C 1284.77 877.654 1287.18 874.121 1290.54 870.967 C 1294.64 867.119 1306.51 861.155 1309.08 856.935 L 1308.59 855.34 C 1306.4 854.805 1305.69 854.599 1303.47 854.323 C 1287 857.103 1279.21 866.27 1278.7 882.617 L 1279.68 883.601 L 1282.11 881.395 z"/>
<path transform="translate(0,0)" fill="rgb(62,60,53)" d="M 1337.19 894.96 C 1342.08 895.933 1341.25 894.963 1343.64 898.011 C 1344.46 906.571 1334.5 915.372 1327.49 918.686 C 1323.72 917.442 1323.27 917.091 1321.36 913.872 C 1319.92 904.464 1329.8 898.258 1337.19 894.96 z"/>
<path transform="translate(0,0)" fill="rgb(47,82,60)" d="M 529.724 1541.43 C 546.777 1539.85 567.038 1545.29 581.946 1553.67 L 573.919 1573.43 C 562.591 1568.09 551.756 1563.23 538.997 1562.39 C 530.28 1561.81 515.373 1564.65 508.58 1570.64 C 505.767 1573.13 503.446 1578.98 503.965 1582.33 C 507.522 1605.33 562.578 1600.2 578.323 1618.96 C 584.83 1625.1 587.985 1632.85 588.061 1641.71 C 588.261 1664.91 572.191 1679.35 550.332 1683.28 C 540.661 1685.02 531.828 1684.92 521.75 1684.91 C 501.017 1682.79 491.027 1679.79 474.541 1667.53 C 477.738 1660.36 480.434 1654.52 484.136 1647.62 C 506.624 1663.33 527.68 1668.88 554.097 1659.15 C 557.969 1654.88 562.989 1649.16 561.43 1642.8 C 557.563 1627.01 527.306 1624.3 513.969 1620.47 C 483.413 1611.69 465.067 1589.68 486.345 1559.75 C 496.066 1546.08 514.517 1543.27 529.724 1541.43 z"/>
<path transform="translate(0,0)" fill="rgb(47,82,60)" d="M 1512.01 1541.4 C 1529.49 1539.81 1552.06 1543.65 1566.88 1553.67 C 1564.26 1560.37 1561.91 1566.94 1558.37 1573.21 C 1540.61 1563.9 1512.77 1555.03 1493.82 1570.72 C 1491.67 1572.5 1487.54 1580.2 1488.71 1582.7 C 1500.68 1608.35 1546.38 1598.06 1564.9 1620.18 C 1570.64 1626.23 1573.48 1633.59 1573.17 1641.97 C 1571.88 1677.03 1543.67 1684.69 1515.24 1684.41 C 1491.5 1684.04 1479.53 1681.17 1459.99 1667.95 C 1461.69 1662.09 1465.87 1653.92 1469.13 1648.77 C 1489.11 1659.49 1521.64 1674.03 1544.4 1654.42 C 1550.66 1648.23 1546.25 1635.36 1539.44 1631.9 C 1511.15 1617.53 1453.43 1621.8 1464.37 1573.16 C 1469.42 1550.69 1491.46 1544.26 1512.01 1541.4 z"/>
<path transform="translate(0,0)" fill="rgb(159,27,40)" d="M 1277.96 777.08 C 1278.59 751.333 1298.84 730.362 1324.55 728.832 C 1350.26 727.302 1372.86 745.723 1376.54 771.214 C 1380.22 796.704 1363.76 820.765 1338.67 826.572 C 1313.58 832.379 1288.22 817.995 1280.33 793.479 C 1278.62 788.184 1277.82 782.641 1277.96 777.08 z M 1300.94 773.983 C 1302.99 769.902 1304.09 767.532 1307.24 764.083 C 1311.23 759.696 1323.59 753.462 1324.86 748.587 C 1321.86 746.446 1321.34 747.076 1316.72 747.267 C 1305.45 751.658 1292.76 763.717 1298.5 776.663 L 1299.59 776.493 L 1300.94 773.983 z"/>
<path transform="translate(0,0)" fill="rgb(62,60,53)" d="M 1350.84 755.592 C 1363.01 761.52 1368.32 772.018 1361.58 784.57 C 1348.96 779.405 1345.9 767.602 1350.84 755.592 z"/>
<path transform="translate(0,0)" fill="rgb(47,82,60)" d="M 729.71 1541.38 C 753.777 1539.15 776.155 1547.52 793.08 1564.61 C 788.489 1568.35 780.964 1575.92 776.357 1580.22 C 768.551 1572.95 760.435 1567.8 750.021 1565.06 C 735.939 1561.4 720.977 1563.58 708.516 1571.09 C 685.286 1585.22 679.815 1618.42 694.365 1640.63 C 701.471 1651.7 712.717 1659.45 725.584 1662.15 C 742.107 1665.56 754.663 1661.26 767.997 1652.3 L 775.51 1645.28 C 780.776 1649.63 787.609 1655.49 791.762 1660.83 C 768.753 1691.05 718.241 1692.79 688.94 1671.48 C 673.92 1660.59 663.892 1644.13 661.099 1625.78 C 656.852 1598.06 666.632 1570.11 690.513 1554.41 C 703.291 1546.01 714.865 1543.58 729.71 1541.38 z"/>
<path transform="translate(0,0)" fill="rgb(159,27,40)" d="M 1390.53 809.184 C 1460.69 807.448 1466.13 886.544 1410.34 902.786 C 1394.95 904.533 1386.35 905.04 1373.2 895.666 C 1372.72 870.521 1368.23 862.421 1352.9 842.973 C 1359.95 823.803 1370.07 813.634 1390.53 809.184 z M 1409.47 830.909 C 1408.15 824.425 1397.24 824.449 1391.99 824.911 L 1391.17 828.463 C 1394.18 831.569 1404.86 830.342 1409.47 830.909 z"/>
<path transform="translate(0,0)" fill="rgb(62,60,53)" d="M 1422.6 840.34 C 1436.29 843.978 1437.86 857.289 1431.59 868.362 C 1417.97 867.252 1419.13 849.777 1422.6 840.34 z"/>
<path transform="translate(0,0)" fill="rgb(47,82,60)" d="M 606.004 849.159 C 611.943 851.725 624.364 862.804 629.38 867.343 C 636.247 904.691 652.053 949.363 671.84 981.376 C 697.421 945.964 716.785 928.677 754.109 905.787 C 753.063 914.31 752.38 919.514 750.315 927.774 C 744.94 932.519 738.966 936.661 733.132 940.82 C 716.832 953.477 698.411 972.75 690.161 992.071 C 685.13 1003.85 686.865 1010.94 691.296 1021.83 C 688.07 1026.28 684.547 1030.73 681.186 1035.1 C 649.449 994.909 626.997 948.191 615.44 898.299 C 611.533 881.741 609.316 865.745 606.004 849.159 z"/>
<path transform="translate(0,0)" fill="rgb(159,27,40)" d="M 1276.39 943.362 C 1288.93 946.109 1300.11 952.072 1313.9 950.78 C 1321.87 950.033 1335.77 943.453 1340.96 950.276 C 1348.49 960.177 1351.18 974.307 1350.96 986.467 C 1350.65 1003.49 1344.55 1010.53 1332.87 1021.52 C 1309.42 1038.1 1280.82 1032.89 1264.2 1009.66 C 1279.67 985.184 1282.48 971.706 1276.39 943.362 z"/>
<path transform="translate(0,0)" fill="rgb(62,60,53)" d="M 1311.81 1003.25 C 1312.16 1003.23 1312.5 1003.21 1312.84 1003.19 L 1314.56 1003.13 C 1318.55 1002.97 1319.94 1002.42 1323.29 1004.63 C 1327.68 1012.1 1318.84 1016.09 1313 1018.16 C 1308.64 1018.5 1305.75 1019.02 1302.12 1016.43 C 1300.25 1013.1 1300.66 1014.87 1301.07 1010.9 C 1303.95 1006.02 1306.43 1004.78 1311.81 1003.25 z"/>
<path transform="translate(0,0)" fill="rgb(159,27,40)" d="M 1370.22 910.54 C 1394.02 916.055 1397.77 918.497 1422.53 910.396 C 1440.92 936.876 1440.89 965.528 1412.35 985.196 C 1395.95 995.124 1380.2 992.865 1363.8 984.928 C 1361.82 963.298 1358.82 957.678 1347.09 939.478 C 1357.87 931.273 1363.18 921.821 1370.22 910.54 z"/>
<path transform="translate(0,0)" fill="rgb(62,60,53)" d="M 1409.71 952.846 C 1413.25 952.824 1414.84 952.426 1417.71 954.44 C 1421.81 962.546 1411.58 972.131 1405.92 977.428 C 1388.94 971.269 1401.86 960.815 1409.71 952.846 z"/>
<path transform="translate(0,0)" fill="rgb(47,82,60)" d="M 1063.31 860.303 C 1066.55 859.911 1068.8 859.17 1071.5 860.761 C 1074.1 865.485 1073.92 876.995 1073.59 882.533 C 1070.85 929.425 1010.38 947.938 972.672 955.895 C 945.934 961.537 915.22 963.308 888.859 970.791 C 868.141 976.671 842.613 989.647 826.111 1003.75 C 822.501 1007.17 821.087 1007.82 816.705 1010.38 C 866.527 954.425 889.582 948.832 963.773 940.392 C 996.874 936.626 1049.78 919.437 1059.26 882.419 C 1060.98 875.7 1054.46 864.209 1063.31 860.303 z"/>
<path transform="translate(0,0)" fill="rgb(47,82,60)" d="M 837.696 1064.01 C 838.439 1063.88 839.407 1064.26 840.266 1064.48 C 843.456 1068.08 844.735 1072.18 846.616 1076.67 C 842.584 1079.35 837.99 1081.94 833.818 1084.43 C 817.97 1093.85 803.368 1105.24 787.477 1114.57 C 802.265 1124.69 816.948 1134.57 832.134 1144.19 C 840.951 1150.57 858.923 1156.2 866.175 1163.69 C 872.946 1170.69 877.603 1181.97 885.053 1190.08 C 875.412 1187.97 866.897 1184.19 857.743 1180.56 C 856.242 1179.96 854.746 1179.35 853.254 1178.74 C 842.274 1174.12 831.632 1168.74 821.406 1162.63 C 805.787 1153.34 748.429 1114.2 742.388 1099.6 C 749.298 1095.27 768.908 1102.9 776.845 1098.97 C 797.433 1088.76 817.311 1075.05 837.696 1064.01 z"/>
<path transform="translate(0,0)" fill="rgb(47,82,60)" d="M 1215.79 369.531 C 1223.21 374.951 1269.07 420.982 1274.79 429.29 C 1268.12 436.334 1263.9 440.752 1258.17 448.72 C 1248.06 438.565 1237.65 427.828 1227.2 418.057 C 1228.37 427.118 1236.81 482.732 1235.52 487.193 C 1229.85 478.494 1214.29 422.227 1209.43 408.292 C 1200.02 416.973 1192.03 423.783 1182.17 431.895 C 1177.55 428.498 1177.04 407.348 1176.49 400.879 C 1188.42 390.919 1203.2 378.046 1215.79 369.531 z"/>
<path transform="translate(0,0)" fill="url(#Gradient6)" d="M 1125.97 850.295 C 1127.28 850.242 1130.41 850.047 1131.51 850.232 C 1148.62 853.092 1147.86 890.123 1147.04 900.819 C 1144.46 934.673 1122.37 961.417 1097.47 982.281 C 1093.72 985.425 1087.9 991.494 1083.28 991.122 C 1078.8 987.905 1073.62 984.572 1069.01 981.451 C 1103.61 956.047 1142.57 920.829 1129.44 873.432 C 1128.15 868.789 1119.94 853.455 1120.24 851.219 L 1125.97 850.295 z"/>
<path transform="translate(0,0)" fill="rgb(45,66,55)" d="M 512.572 1748.35 C 518.562 1747.63 523.779 1746.85 529.558 1749.19 C 536.054 1751.79 541.167 1756.98 543.655 1763.52 C 548.708 1776.93 541.866 1787.82 529.02 1792.58 C 523.925 1793.73 518.634 1794.18 513.521 1792.76 C 507.441 1791.1 502.301 1787.04 499.29 1781.5 C 496.418 1776.03 495.823 1769.65 497.633 1763.74 C 500.156 1755.58 505.387 1751.87 512.572 1748.35 z M 525.527 1785.94 C 532.479 1783.83 537.11 1777.27 536.775 1770.01 C 536.549 1765.1 534.071 1760.58 530.06 1757.75 C 526.049 1754.92 520.956 1754.1 516.261 1755.53 C 507.864 1758.09 503.132 1766.97 505.691 1775.37 C 508.249 1783.77 517.13 1788.5 525.527 1785.94 z"/>
<path transform="translate(0,0)" fill="rgb(45,66,55)" d="M 417.569 1748.45 C 437.982 1746.71 445.214 1751.55 450.376 1771.15 C 447.447 1782.87 444.071 1788.34 432.428 1792.78 C 427.412 1793.61 422.199 1793.95 417.268 1792.41 C 411.15 1790.55 406.043 1786.3 403.107 1780.62 C 395.69 1766.12 404.425 1754.56 417.569 1748.45 z M 429.527 1786.09 C 438.007 1783.83 443.016 1775.09 440.678 1766.63 C 438.339 1758.17 429.551 1753.24 421.114 1755.66 C 412.788 1758.05 407.939 1766.69 410.247 1775.04 C 412.555 1783.39 421.158 1788.32 429.527 1786.09 z"/>
<path transform="translate(0,0)" fill="rgb(45,66,55)" d="M 723.352 1748.08 C 735.964 1744.65 748.964 1752.11 752.367 1764.73 C 755.77 1777.35 748.283 1790.33 735.657 1793.71 C 727.363 1795.93 718.517 1793.47 712.553 1787.3 C 706.588 1781.12 704.443 1772.2 706.95 1763.98 C 709.32 1756.22 715.514 1750.21 723.352 1748.08 z M 733.528 1786.12 C 739.107 1784.75 743.502 1780.45 745.01 1774.91 C 746.519 1769.36 744.905 1763.43 740.793 1759.42 C 736.681 1755.4 730.717 1753.93 725.209 1755.57 C 716.966 1758.03 712.188 1766.61 714.448 1774.91 C 716.708 1783.21 725.178 1788.19 733.528 1786.12 z"/>
<path transform="translate(0,0)" fill="rgb(45,66,55)" d="M 1333.99 1748.04 C 1347.31 1748.94 1372.65 1744.35 1376.62 1763.01 C 1378.71 1772.82 1377.17 1779 1371.61 1787.22 C 1361.33 1794.69 1346.86 1792.84 1333.96 1792.92 L 1333.99 1748.04 z M 1341.94 1785.77 C 1352.59 1785.98 1356.06 1786.79 1365.39 1781.73 C 1371.3 1771.43 1371.01 1762.58 1359.76 1757.26 C 1353.27 1754.19 1348.61 1755.03 1341.76 1755 C 1341.99 1765.26 1342.05 1775.51 1341.94 1785.77 z"/>
<path transform="translate(0,0)" fill="rgb(45,66,55)" d="M 655.376 1748.2 C 672.964 1749.04 699.293 1743.69 698.783 1772.92 C 698.682 1778.72 694.825 1784.44 690.999 1788.65 C 680.957 1794.84 667.127 1792.93 654.923 1793.05 C 655.86 1778.65 655.641 1762.61 655.376 1748.2 z M 686.515 1781.65 C 700.185 1760.64 680.238 1755.23 663.169 1755 L 663.313 1786.11 C 672.946 1786.1 678.477 1787.01 686.515 1781.65 z"/>
<path transform="translate(0,0)" fill="rgb(45,66,55)" d="M 895.603 1748.63 C 909.477 1747.34 935.019 1745.41 931.718 1767.11 C 930.857 1772.77 926.495 1775.49 922.029 1778.34 C 924.57 1781.59 931.593 1789.65 931.372 1793.13 L 929.673 1793.85 C 922.339 1793.17 918.693 1785.67 914.052 1780 L 902.952 1779.92 C 903.076 1783.68 903.646 1788.11 902.238 1791.46 C 899.107 1793.35 900.825 1792.78 896.761 1792.71 L 895.445 1791.2 C 894.748 1785.22 894.417 1754.23 895.603 1748.63 z M 902.995 1773.96 C 907.684 1773.81 913.353 1773.78 917.93 1773.24 C 929.708 1765.96 924.208 1755.91 913.001 1754.75 C 911.425 1754.59 909.846 1754.46 908.266 1754.37 L 904.197 1755.09 C 901.248 1759.44 902.906 1768.39 902.995 1773.96 z"/>
<path transform="translate(0,0)" fill="rgb(45,66,55)" d="M 556.003 1748.15 C 570.202 1747.96 596.029 1744.55 592.546 1768.28 C 591.816 1773.25 587.344 1776.15 583.39 1778.69 C 586.651 1783 592.368 1787.82 592.284 1792.8 L 588.981 1794.21 C 583.235 1791.03 579.343 1785.14 575.28 1779.96 C 570.967 1779.77 568.931 1779.74 564.653 1780.19 C 562.402 1783.77 565.006 1786.27 563.609 1792.16 L 561.746 1793.31 C 558.42 1793.13 559.518 1793.62 556.889 1792.09 C 555.954 1788.52 556.09 1753.89 556.003 1748.15 z M 564.181 1772.89 C 571.038 1772.85 576.816 1773.56 582.825 1770.31 C 589.421 1754.48 575.041 1755.14 564.124 1755.14 L 564.181 1772.89 z"/>
<path transform="translate(0,0)" fill="rgb(45,66,55)" d="M 1123.54 1748.39 C 1135.89 1748.19 1160.52 1745.64 1156.42 1766.43 C 1155.21 1772.58 1151.73 1775.24 1146.66 1778.45 C 1149.32 1782.47 1154.59 1787.46 1155.06 1791.39 L 1153.76 1792.81 L 1148.61 1792.94 C 1144.02 1786.75 1139.54 1779.85 1131.5 1778.46 C 1122.94 1781.22 1130.14 1786.08 1126.54 1792.59 C 1123.53 1792.72 1123.37 1792.89 1120.54 1792.07 C 1119.57 1790.54 1119.65 1752.54 1120.31 1749.26 L 1123.54 1748.39 z M 1127.2 1773.77 C 1133.63 1773.44 1139.11 1773.6 1145.13 1771.44 C 1156.94 1756.01 1137.62 1755.2 1127.42 1755.53 C 1127.54 1761.61 1127.47 1767.69 1127.2 1773.77 z"/>
<path transform="translate(0,0)" fill="rgb(45,66,55)" d="M 846.848 1748.01 C 857.176 1749.22 878.286 1744.93 882.865 1756.82 C 887.543 1768.97 881.465 1776.04 870.758 1779.44 C 865.806 1779.83 860.021 1779.86 854.994 1780.01 C 855.076 1784.53 855.272 1787.11 854.478 1791.58 C 852.589 1793.91 853.77 1793.06 850.624 1793.91 L 848.755 1792.59 C 845.347 1784.9 846.89 1758.38 846.848 1748.01 z M 854.925 1773.52 C 862.502 1773.38 865.903 1773.56 873.294 1771.57 C 885.33 1755.74 865.368 1754.79 855.014 1755.09 L 854.925 1773.52 z"/>
<path transform="translate(0,0)" fill="rgb(45,66,55)" d="M 1529.91 1748.39 C 1536.98 1748.18 1551.1 1747.08 1556.86 1749.79 C 1574.44 1758.06 1568.55 1774.4 1552.54 1779.95 L 1538.15 1780.08 C 1538.15 1784.55 1538.76 1789.55 1536.59 1793.02 C 1533.45 1793.25 1534.8 1793.71 1532.32 1792.22 C 1529.09 1785.38 1530.57 1759.07 1529.91 1748.39 z M 1538.25 1772.91 C 1546.18 1773.02 1549.71 1773.55 1557 1770.2 C 1564.87 1754.79 1548.22 1754.88 1538.17 1754.97 L 1538.25 1772.91 z"/>
<path transform="translate(0,0)" fill="rgb(47,82,60)" d="M 996.051 1763.03 C 996.37 1767.65 997.546 1789.06 995.414 1792.6 C 992.384 1793.04 992.519 1793.12 989.548 1792.52 C 987.891 1785.29 987.417 1757.19 990.275 1749.68 L 992.288 1748.05 C 998.116 1749.79 1009.24 1771.23 1013.43 1778.23 C 1016.81 1772.08 1026.98 1751.22 1032.31 1748.86 C 1037.82 1749.69 1038.04 1756.06 1037.85 1760.74 C 1037.56 1767.79 1038.6 1787.77 1035.51 1793.24 L 1031.42 1793.05 C 1028.42 1789.61 1030.15 1781.73 1029.83 1776.63 C 1029.98 1772.22 1030.14 1769.62 1029.66 1765.27 L 1028.57 1765.14 L 1026.4 1768.88 C 1022.19 1775.95 1017.92 1782.99 1013.57 1789.98 C 1008.46 1784.9 1000.31 1770.02 996.051 1763.03 z"/>
<path transform="translate(0,0)" fill="rgb(47,82,60)" d="M 618.197 1748.34 C 624.466 1748.08 628.36 1749.59 630.337 1755.71 C 632.202 1761.48 646.598 1789.99 646.762 1792.76 C 643.636 1794.21 643.871 1794.3 640.527 1793.64 C 634.528 1789.61 637.046 1784.39 630.247 1782.81 C 624.518 1782.57 617.652 1782.95 611.813 1783.13 C 610.148 1787.66 609.82 1789.81 606.386 1792.46 C 603.135 1792.62 603.375 1793 600.606 1791.89 C 600.541 1785.99 614.831 1755.82 618.197 1748.34 z M 626.25 1776.01 L 629.766 1775.64 C 630.054 1771.44 624.474 1760.37 622.217 1756.66 C 619.943 1762.07 615.722 1769.5 616.195 1774.41 C 619.458 1776.88 621.261 1776.03 626.25 1776.01 z"/>
<path transform="translate(0,0)" fill="rgb(45,66,55)" d="M 1244.64 1748.02 L 1250.73 1748.2 C 1254.85 1750.95 1269.5 1785.49 1271.18 1791.54 C 1268.74 1793.46 1270.11 1792.72 1266.63 1793.01 C 1258.64 1789.25 1264.44 1783.68 1253.12 1782.44 L 1237.34 1783.03 C 1235.51 1788.04 1235.86 1789.45 1232.33 1792.47 C 1229.19 1792.7 1228.66 1792.89 1225.51 1792.27 C 1225.47 1786.77 1241.18 1754.59 1244.64 1748.02 z M 1251.25 1775.82 L 1254.9 1775.66 C 1256.26 1770.99 1251.29 1762.21 1248.81 1757.72 L 1248.2 1756.62 C 1246 1761.53 1241.24 1769.72 1241.97 1774.23 C 1244.67 1776.69 1246.61 1775.9 1251.25 1775.82 z"/>
<path transform="translate(0,0)" fill="rgb(45,66,55)" d="M 1098.26 858.352 C 1115.92 860.535 1115.73 894.812 1111.45 907.831 C 1104.66 928.484 1094.65 939.905 1075.9 950.381 L 1065.44 952.551 C 1096.05 927.576 1111.36 897.71 1098.26 858.352 z"/>
<path transform="translate(0,0)" fill="rgb(47,82,60)" d="M 1600.84 1747.54 C 1611.78 1748.19 1625.23 1770.57 1632.16 1779.78 C 1632.27 1772.24 1629.7 1753.14 1634.97 1748.45 C 1638.12 1747.92 1636.81 1747.51 1639.15 1749.16 C 1640.79 1759.2 1639.99 1780.76 1639.9 1791.73 C 1638.71 1792.77 1638.5 1792.44 1636.48 1792.84 C 1630.24 1791.28 1614.13 1769.23 1608.96 1762.75 C 1609.05 1772.14 1608.91 1781.53 1608.55 1790.91 C 1606.57 1793.16 1607.75 1792.39 1604.86 1793.28 L 1603.26 1792.05 C 1599.59 1784.18 1600.89 1758.31 1600.84 1747.54 z"/>
<path transform="translate(0,0)" fill="rgb(47,82,60)" d="M 1493.64 1748.55 C 1496.16 1748.51 1499 1748.6 1501.54 1748.63 C 1506.99 1762.14 1513.76 1777.31 1521.47 1789.79 C 1522.48 1791.43 1522.17 1790.06 1521.92 1792.73 L 1519.68 1793.67 C 1508.3 1792.75 1513.59 1785.33 1506.07 1782.07 C 1499.57 1782.15 1492.63 1782.54 1486.1 1782.78 C 1484.73 1786.16 1483.94 1787.97 1482.2 1791.17 C 1478.96 1793.18 1480.02 1792.57 1475.51 1792.38 L 1474.52 1791.19 C 1475.38 1787.31 1491.47 1751.68 1493.64 1748.55 z M 1501.25 1776.04 L 1504.52 1775.79 C 1505.56 1771.75 1499.47 1760.09 1496.98 1756.51 C 1495.22 1761.25 1490.65 1770.44 1491.01 1774.05 C 1493.64 1777.31 1497.14 1776.22 1501.25 1776.04 z"/>
<path transform="translate(0,0)" fill="rgb(47,82,60)" d="M 1280.73 1747.67 C 1292.07 1748.07 1304.96 1770.17 1311.96 1779.19 C 1311.9 1772.28 1310.33 1753.08 1313.44 1748.24 C 1316.35 1747.9 1316.34 1747.65 1318.98 1748.75 C 1319.75 1752.51 1319.3 1786.37 1319.28 1791.78 C 1316.85 1793.24 1317.97 1792.62 1314.55 1792.67 C 1308.18 1789.34 1293.07 1768.58 1288.14 1762.04 C 1288.35 1770.54 1288.42 1780.1 1288.29 1788.66 C 1288.26 1791.07 1286.27 1792.3 1284.66 1793.43 L 1282.6 1792.89 C 1279.68 1787.42 1280.81 1756.34 1280.73 1747.67 z"/>
<path transform="translate(0,0)" fill="rgb(45,66,55)" d="M 1074.7 1748.2 C 1081.6 1748.48 1101.86 1747.1 1106.66 1749.26 C 1107.31 1752.92 1107.83 1751.69 1106.51 1754.06 C 1100.34 1755.44 1089.71 1755.07 1082.99 1755.08 L 1083.24 1766.99 C 1088.35 1767 1101.81 1766.05 1104.97 1769.41 C 1104.56 1772.38 1104.76 1773.19 1102.93 1775.54 C 1098.52 1776.02 1088.85 1774.21 1083.01 1773.8 L 1083.05 1786.15 C 1090.42 1786.35 1100.04 1784.8 1105.63 1785.95 C 1108.8 1788.36 1107.79 1786.84 1108.83 1790.6 L 1107.63 1791.95 C 1100.14 1793.09 1083.47 1792.75 1074.73 1792.99 C 1074.8 1778.06 1074.79 1763.13 1074.7 1748.2 z"/>
<path transform="translate(0,0)" fill="rgb(45,66,55)" d="M 1674.63 1747.38 C 1679.72 1747.91 1691.61 1749 1692.7 1755.12 L 1690.84 1757.49 C 1683.07 1760.33 1663.13 1747.28 1659.46 1766.46 C 1657.35 1777.49 1671.39 1793.28 1682.06 1784.51 C 1685.67 1781.54 1684.34 1774.88 1683.85 1770.07 C 1686.88 1770.06 1689.03 1770.19 1692.06 1770.44 C 1696.82 1779.67 1692.36 1791.06 1682.26 1793.12 C 1648.66 1799.99 1636.69 1752.24 1674.63 1747.38 z"/>
<path transform="translate(0,0)" fill="rgb(47,82,60)" d="M 858.318 859.997 L 861.041 860.031 L 861.566 861.438 C 851.257 885.723 833.674 888.048 810.271 894.273 C 808.601 894.629 809.492 894.67 807.627 893.848 C 809.961 875.8 817.754 874.748 834.006 868.592 C 841.985 865.57 850.256 862.826 858.318 859.997 z"/>
<path transform="translate(0,0)" fill="rgb(45,66,55)" d="M 1395.73 1748.25 C 1404.66 1747.45 1412.67 1746.41 1419.42 1753.35 L 1419.21 1754.74 C 1412.19 1757.38 1403.11 1753.97 1395.07 1757.36 C 1388.32 1767.06 1413.82 1768.26 1416.53 1771.26 C 1427.33 1783.21 1418.14 1791.38 1406.77 1793.53 C 1400.37 1794.14 1388.67 1793.44 1385.2 1787.38 C 1387.52 1774.99 1397.11 1790.06 1404.88 1786.89 C 1408.55 1785.39 1410.66 1786.18 1413.22 1782.41 C 1409 1773.75 1380.42 1773.44 1385.82 1756.19 C 1387.23 1751.7 1391.81 1750.05 1395.73 1748.25 z"/>
<path transform="translate(0,0)" fill="rgb(45,66,55)" d="M 944.264 1748.63 C 949.647 1748.37 972.44 1746.94 975.668 1749.3 C 976.04 1752.66 976.532 1751.65 975.427 1754.15 C 969.84 1755.34 958.239 1755.07 952.018 1755.12 L 951.975 1767.25 C 957.054 1767.11 971.326 1765.62 973.787 1771.01 C 968.54 1775.37 958.616 1774.1 951.891 1773.9 L 951.995 1786.3 C 958.435 1786.18 977.336 1783.87 978.828 1790.71 L 977.56 1792.04 C 970.23 1793.95 952.548 1793.11 944.195 1792.97 L 944.264 1748.63 z"/>
<path transform="translate(0,0)" fill="url(#Gradient5)" d="M 790.783 1748.38 C 797.058 1747.56 809.34 1746.63 812.947 1753.1 L 811.055 1755.54 C 806.102 1757.9 800.948 1753.74 795.061 1755.13 C 792.695 1755.7 790.698 1757.28 789.599 1759.45 C 788.857 1760.94 789.229 1760.67 789.911 1762.65 C 798.161 1769.32 824.156 1770.69 814.082 1787.45 C 811.323 1792.04 806.136 1792.93 801.278 1794.08 C 795.748 1793.99 784.658 1793.39 780.665 1789.44 C 780.411 1786.37 780.187 1787.87 781.764 1784.87 C 789.707 1781.45 800.852 1791.78 807.621 1782.52 C 805.27 1774.76 759.872 1767.13 790.783 1748.38 z"/>
<path transform="translate(0,0)" fill="url(#Gradient4)" d="M 908.748 981.326 C 913.159 980.555 923.21 980.899 927.791 981.036 C 901.887 987.801 881.338 992.409 863.38 1012.15 C 859.237 1016.71 855.077 1015.82 849.245 1015.25 C 842.91 1014.94 838.589 1014.43 832.31 1013.54 C 854.96 997.044 881.123 986.017 908.748 981.326 z"/>
<path transform="translate(0,0)" fill="rgb(45,66,55)" d="M 1450.99 1747.26 C 1457.56 1747.4 1466.74 1749.47 1470.09 1755.67 C 1465.26 1763.9 1450.15 1750.95 1442.74 1756.94 C 1427.03 1769.64 1440.06 1795.38 1462.54 1782.24 L 1464.13 1781.5 L 1466.37 1782.83 C 1468.18 1785.99 1467.92 1784.33 1466.97 1788.01 C 1450.96 1805.99 1414.62 1782.03 1431.59 1757.9 C 1437.07 1750.11 1442.18 1748.74 1450.99 1747.26 z"/>
<path transform="translate(0,0)" fill="rgb(45,66,55)" d="M 370.642 1748.4 C 379.209 1747.37 390.363 1746.59 394.337 1756.24 L 393.355 1757.97 C 388.518 1759.77 351.717 1745.11 364.285 1778.58 C 367.49 1787.12 376.948 1787.96 384.47 1784.9 C 388.41 1782.71 389.292 1782.07 393.585 1783.57 C 399.593 1793.6 375.654 1795.26 369.257 1792.39 C 347.152 1782.46 347.951 1758.54 370.642 1748.4 z"/>
<path transform="translate(0,0)" fill="rgb(47,82,60)" d="M 1196.06 646.552 L 1198.33 646.409 L 1198.5 648.379 C 1194.96 654.769 1190.03 660.283 1184.07 664.516 C 1173.47 664.831 1162.39 664.823 1151.76 664.969 C 1150.37 664.804 1151.23 664.994 1149.29 664.002 C 1147.17 642.836 1181.47 647.192 1196.06 646.552 z"/>
<path transform="translate(0,0)" fill="rgb(45,66,55)" d="M 1037.74 866.533 C 1040.5 867.254 1039.59 866.794 1041.73 868.639 C 1043.92 873.659 1042.75 881.729 1040.72 886.555 C 1033.99 902.57 1020.59 911.339 1005.67 917.931 C 1004.99 918.14 1003.46 918.458 1002.72 918.629 C 1003.98 915.392 1012.88 909.047 1016.58 904.944 C 1020.32 900.742 1023.52 896.089 1026.1 891.091 C 1029.42 884.587 1030.56 878.825 1031.83 871.794 C 1032.42 868.539 1035.07 867.902 1037.74 866.533 z"/>
<path transform="translate(0,0)" fill="rgb(45,66,55)" d="M 968.239 769.999 C 978.931 774.688 1027.48 781.875 1035.26 791.609 L 1033.71 794.112 C 1027.09 798.084 1024.17 799.556 1017.62 794.384 C 1007.89 786.692 972.374 780.484 968.239 769.999 z"/>
<path transform="translate(0,0)" fill="rgb(45,66,55)" d="M 1189.56 1748.02 C 1192.73 1748.03 1194.8 1747.63 1197.31 1749.43 C 1198.14 1754.12 1197.82 1779.36 1197.91 1786.29 C 1205.37 1786.42 1215.77 1784.33 1221.08 1787.29 L 1221.71 1792.72 C 1212.61 1793.21 1199.28 1792.72 1189.47 1792.98 C 1190.38 1780.41 1190.15 1760.71 1189.56 1748.02 z"/>
<path transform="translate(0,0)" fill="url(#Gradient3)" d="M 461.025 1747.89 C 464.613 1747.89 464.74 1747.81 468.39 1748.74 C 469.397 1752.23 469.051 1780.52 469.049 1786.13 C 475.913 1786.1 487.571 1784.28 491.976 1788.02 L 492.091 1792.82 C 481.408 1792.5 471.632 1792.73 460.969 1792.99 L 461.025 1747.89 z"/>
<path transform="translate(0,0)" fill="url(#Gradient2)" d="M 918.236 707.962 C 921.302 720.328 886.265 720.902 933.273 758.496 L 933.262 759.448 L 928.465 758.73 C 899.171 749.531 889.312 726.202 918.236 707.962 z"/>
<path transform="translate(0,0)" fill="rgb(47,82,60)" d="M 1578.02 1748.07 C 1581.66 1747.97 1582.67 1747.76 1586.22 1748.85 C 1587.29 1755.71 1586.27 1781.53 1586.87 1792.02 C 1583.33 1793.06 1583.54 1792.99 1579.84 1792.7 C 1576.99 1789.49 1578.02 1754.6 1578.02 1748.07 z"/>
<path transform="translate(0,0)" fill="rgb(45,66,55)" d="M 1052.03 1748.37 C 1055.45 1748.24 1055.7 1748.13 1059.19 1748.85 C 1060.61 1753.84 1060.07 1786.6 1060.06 1793.46 L 1053.9 1792.68 C 1050.84 1789.22 1052.02 1755.79 1052.03 1748.37 z"/>
<path transform="translate(0,0)" fill="url(#Gradient1)" d="M 697.362 701.378 C 693.34 696.939 662.53 643.928 659.461 637.852 L 660.157 637.956 C 668.733 648.221 680.165 661.401 686.664 672.854 C 686.085 680.246 701.999 693.883 701.099 701.764 L 700.012 702.647 L 697.362 701.378 z"/>
<path transform="translate(0,0)" fill="rgb(45,66,55)" d="M 1040.75 948.226 C 1048.74 942.274 1060.61 935.958 1069.44 930.574 C 1062.46 940.001 1056.31 948.128 1045.97 954.18 C 1044.14 954.045 1043.31 953.957 1041.44 953.679 L 1040.75 948.226 z"/>
<path transform="translate(0,0)" fill="rgb(45,66,55)" d="M 764.451 1744.56 C 777.835 1748.99 771.725 1756.25 766.98 1765.8 L 763.602 1765.67 L 762.659 1764.27 C 762.718 1755.85 761.129 1750.84 764.451 1744.56 z"/>
<path transform="translate(0,0)" fill="rgb(62,60,53)" d="M 1040.75 948.226 L 1041.44 953.679 C 1043.31 953.957 1044.14 954.045 1045.97 954.18 C 1038.32 958.903 1034.33 960.41 1025.85 963.884 C 1030.54 955.885 1033.59 953.606 1040.75 948.226 z"/>
<path transform="translate(0,0)" fill="rgb(239,250,241)" fill-opacity="0.0313725" d="M 1285.17 472.482 L 1286.64 467.487 L 1287.39 467.375 C 1287.24 474.14 1286.78 479.657 1286.14 486.397 C 1285.63 481.626 1285.41 477.254 1285.17 472.482 z"/>
<path transform="translate(0,0)" fill="rgb(239,250,241)" fill-opacity="0.027451" d="M 1050.1 370.848 L 1055.45 379.322 L 1053.35 380.833 C 1052.12 378.753 1049.78 373.471 1048.61 371.064 L 1050.1 370.848 z"/>
<path transform="translate(0,0)" fill="rgb(239,250,241)" fill-opacity="0.0156863" d="M 1026.4 1768.88 L 1028.57 1765.14 L 1029.66 1765.27 C 1030.14 1769.62 1029.98 1772.22 1029.83 1776.63 C 1029 1773.05 1029 1771.47 1026.4 1768.88 z"/>
<path transform="translate(0,0)" fill="rgb(62,60,53)" fill-opacity="0.94902" d="M 1387.23 1084.25 C 1384.05 1086.7 1384.07 1087.53 1380.73 1087.9 C 1381.38 1084.53 1382.06 1084.75 1384.72 1081.7 L 1387.23 1084.25 z"/>
<path transform="translate(0,0)" fill="rgb(170,199,177)" fill-opacity="0.105882" d="M 1390.94 459.804 C 1393.51 458.327 1396.96 455.859 1399.67 456.013 C 1397.62 458.581 1395.25 459.582 1392.37 461.221 L 1390.94 459.804 z"/>
<path transform="translate(0,0)" fill="rgb(170,199,177)" fill-opacity="0.141176" d="M 1048.61 371.064 C 1047.18 368.652 1045.58 367.143 1045.94 365.039 C 1048.53 367.585 1048.46 367.765 1050.1 370.848 L 1048.61 371.064 z"/>
</svg>