<svg version="1.1" xmlns="http://www.w3.org/2000/svg" style="display: block;" viewBox="0 0 2048 2048" width="1024" height="1024" preserveAspectRatio="none">
<defs>
	<linearGradient id="Gradient1" gradientUnits="userSpaceOnUse" x1="498.14" y1="1533.01" x2="490.484" y2="1526.89">
		<stop class="stop0" offset="0" stop-opacity="1" stop-color="rgb(237,251,241)"/>
		<stop class="stop1" offset="1" stop-opacity="1" stop-color="rgb(255,255,255)"/>
	</linearGradient>
	<linearGradient id="Gradient2" gradientUnits="userSpaceOnUse" x1="1052.19" y1="570.93" x2="1059.67" y2="553.806">
		<stop class="stop0" offset="0" stop-opacity="1" stop-color="rgb(239,252,239)"/>
		<stop class="stop1" offset="1" stop-opacity="1" stop-color="rgb(255,255,255)"/>
	</linearGradient>
</defs>
<path transform="translate(0,0)" fill="rgb(47,88,61)" d="M 909.514 257.072 L 984.711 335.408 C 991.287 310.72 991.448 298.356 995.194 273.946 C 1025.59 274.986 1069.88 306.778 1087.98 329.534 C 1091.87 321.782 1098.75 305.55 1106.44 302.604 C 1109.27 303.048 1111.33 304.155 1113.51 305.987 C 1143.83 331.484 1170.34 382.291 1176.16 420.537 C 1191.83 391.16 1210.77 372.91 1242.34 360.247 C 1259.43 379.716 1270.13 409.288 1277.6 433.643 C 1281.79 430.447 1285.73 426.92 1289.7 423.461 C 1308.25 407.319 1327.47 391.949 1346.07 375.868 C 1357.46 386.363 1369.63 399.22 1380.72 410.304 C 1403.29 432.85 1425.7 455.544 1447.97 478.382 C 1452.81 482.264 1456.83 485.977 1461.39 490.175 C 1467.21 484.943 1483.34 470.279 1490.45 469.163 C 1504.33 474.155 1517.34 519.959 1521.15 534.035 C 1536.5 499.79 1577.44 459.24 1617.14 458.919 C 1618.94 468.933 1620.99 479.653 1622.06 489.725 C 1662.46 473.209 1708.51 462.447 1751.79 474.796 C 1741.04 519.319 1721.76 574.789 1688.25 606.518 C 1676.71 617.453 1666.47 623.512 1653.92 632.58 C 1677.01 635.904 1728.9 648.762 1744.09 665.602 C 1749.86 674.303 1749.93 680.489 1751.57 690.842 C 1767.98 718.086 1783.16 743.544 1797.23 772.143 C 1926.86 1035.74 1877.86 1359.31 1677.06 1573.41 C 1664.93 1586.35 1651.32 1599.9 1637.15 1610.52 C 1633.61 1613.17 1631.96 1612.26 1628.5 1610.48 C 1614.1 1604.59 1587.59 1597.7 1572.26 1594.1 C 1563.83 1601.71 1555.76 1610.55 1547.72 1618.68 C 1473.94 1693.36 1382.07 1753.31 1282.95 1788.25 C 1272.25 1792.02 1261.51 1795.51 1250.83 1799.26 C 1241.63 1803.23 1233.6 1806.72 1224.75 1811.59 C 1225.04 1813.44 1225.04 1819.07 1225.09 1821.24 C 1169.19 1823.83 1104.33 1812.95 1060.29 1776.35 C 1062.3 1787.67 1064.39 1837.24 1057.49 1845.73 C 1052.23 1848.09 1047.3 1845.93 1041.99 1844.82 C 985.664 1833.12 944.902 1800.91 918.287 1749.76 C 915.002 1780.68 909.35 1809.1 898.053 1838.15 C 864.962 1831.06 824.35 1795.81 799.801 1772.31 C 796.618 1769.26 794.741 1761.58 790.664 1756.76 C 780.931 1749.55 758.224 1744.04 745.361 1739.98 C 750.652 1750.34 769.9 1779.3 771.835 1785.58 L 769.831 1786.23 C 763.297 1785.48 739.619 1775.17 732.23 1771.99 C 677.475 1747.89 626.275 1716.42 580.054 1678.44 C 565.396 1666.59 549.615 1650.94 535.533 1640.16 L 534.654 1639.5 C 523.028 1633.86 512.839 1628.32 500.754 1623.6 C 496.301 1629.09 492.377 1635.83 488.814 1641.89 C 465.902 1680.86 450.039 1722.99 436.495 1765.96 C 435.627 1768.72 433.901 1770.04 431.433 1771.41 C 424.521 1771.62 414.151 1758.63 409.624 1753.7 C 394.667 1742.04 390.449 1730.9 370.814 1719.09 C 357.637 1693.75 345.776 1610.42 346.847 1582.26 C 330 1566.81 306.36 1536.04 293.329 1517.23 C 223.957 1416.2 180.953 1299.42 168.232 1177.52 C 147.656 970.243 214.926 781.88 345.913 622.007 C 363.889 633.853 389.597 655.378 406.273 669.364 C 420.459 650.996 437.791 631.623 452.939 613.788 C 484.543 576.331 516.391 539.081 548.481 502.04 L 594.36 447.966 C 600.377 440.867 616.263 421.562 622.999 416.085 C 642.307 432.712 683.082 468.369 698.896 485.883 C 719.143 462.81 738.756 442.406 759.241 419.991 C 782.152 394.436 805.194 368.998 828.366 343.678 L 877.813 289.991 C 887.58 279.47 899.137 266.537 909.514 257.072 z"/>
<path transform="translate(0,0)" fill="rgb(254,254,254)" d="M 1744.09 665.602 C 1749.86 674.303 1749.93 680.489 1751.57 690.842 C 1767.98 718.086 1783.16 743.544 1797.23 772.143 C 1926.86 1035.74 1877.86 1359.31 1677.06 1573.41 C 1664.93 1586.35 1651.32 1599.9 1637.15 1610.52 C 1633.61 1613.17 1631.96 1612.26 1628.5 1610.48 C 1614.1 1604.59 1587.59 1597.7 1572.26 1594.1 C 1563.83 1601.71 1555.76 1610.55 1547.72 1618.68 C 1473.94 1693.36 1382.07 1753.31 1282.95 1788.25 C 1272.25 1792.02 1261.51 1795.51 1250.83 1799.26 C 1241.63 1803.23 1233.6 1806.72 1224.75 1811.59 C 1222.7 1805.41 1220.91 1788.51 1218.45 1779.97 C 1205.32 1734.46 1187.22 1702.57 1156.97 1666.85 C 1173.44 1662.87 1192.89 1655.17 1206.95 1645.59 C 1181.16 1586.73 1118.14 1548.83 1055.42 1543.71 C 1090.05 1524.85 1102.06 1518.86 1123.39 1485.45 C 1115.05 1480.53 1106.67 1472.45 1098.02 1467.16 C 977.093 1393.23 870.267 1437.12 755.959 1493.59 C 773.511 1501.31 795.317 1510.83 813.916 1514.58 C 891.159 1530.12 956.137 1478.56 1033.18 1486.75 C 1017.84 1490.32 1003.91 1492.67 988.667 1497.4 C 942.497 1511.72 903.261 1529.98 854.199 1532.24 C 863.115 1537.99 980.398 1603.24 984.466 1603.65 C 1037.18 1608.95 1069.64 1595.76 1126.5 1619.17 C 1114.2 1618.87 1100.28 1616.82 1087.44 1616.41 C 1058.93 1615.53 1033.68 1618.09 1005.78 1622.95 C 1022.33 1639.06 1050.92 1660.77 1069.36 1676.2 C 1098.17 1700.35 1125.84 1725.84 1152.26 1752.59 C 1142.6 1748.09 1127.96 1734.9 1119.29 1727.76 C 1105.84 1716.57 1092.22 1705.6 1078.42 1694.85 C 1040.05 1665.36 1000.26 1637.77 959.196 1612.17 C 867.199 1555.11 751.051 1497.94 640.324 1505.4 C 616.308 1507.02 599.989 1510.78 576.925 1516.17 C 616.108 1468.21 659.87 1429.07 709.944 1392.74 C 755.955 1359.36 801.063 1328.52 857.195 1315.45 C 880.77 1310.13 904.781 1306.98 928.929 1306.02 C 942.932 1305.45 967.897 1309.73 976.59 1297.87 C 979.092 1281.28 926.485 1271.88 913.557 1269.37 C 923.433 1261.13 949.248 1248.52 961.703 1242.5 C 1035.04 1207.69 1114.96 1179.42 1196.95 1177.46 C 1283.97 1175.37 1331.06 1232.36 1331.29 1316.11 C 1343.61 1313.75 1356.29 1314.05 1368.48 1316.97 C 1355.25 1267.43 1353.39 1225.82 1314.73 1183.74 C 1353.59 1189.67 1400.1 1204.48 1428.34 1232.96 C 1433.3 1221.7 1440.59 1211.6 1449.72 1203.34 C 1428.45 1186.03 1381.73 1166.66 1355.9 1155.75 C 1381.56 1135.93 1426.85 1115.44 1458.19 1108.59 C 1454.76 1099.06 1453.05 1089.01 1453.13 1078.88 C 1431.06 1085.87 1415.54 1091.99 1394.18 1101.61 C 1364.77 1114.86 1334.37 1130.19 1302.58 1136.33 C 1275.27 1141.62 1253.54 1136.41 1226.5 1135.34 C 1184.4 1133.68 1149.78 1139.03 1109.19 1148.87 C 1128.6 1131.53 1155.58 1113.47 1176.24 1097.57 C 1213.63 1069.08 1248.64 1037.6 1280.92 1003.43 C 1304.85 977.823 1327.3 950.875 1348.16 922.713 C 1364.73 900.162 1379.87 875.84 1395.57 852.628 C 1404.31 839.711 1414.31 823.124 1424.75 811.724 C 1432.09 803.69 1440.65 796.868 1450.11 791.508 C 1484.93 772.022 1516.14 774.661 1554.02 771.452 C 1607.71 766.901 1666.74 752.377 1707 714.617 C 1716.94 705.292 1740.89 679.012 1744.09 665.602 z"/>
<path transform="translate(0,0)" fill="rgb(47,88,61)" d="M 1751.57 690.842 C 1767.98 718.086 1783.16 743.544 1797.23 772.143 C 1926.86 1035.74 1877.86 1359.31 1677.06 1573.41 C 1664.93 1586.35 1651.32 1599.9 1637.15 1610.52 C 1633.61 1613.17 1631.96 1612.26 1628.5 1610.48 C 1635.69 1599.94 1654.46 1579.03 1663.39 1568.21 C 1678.38 1549.89 1692.4 1530.78 1705.37 1510.98 C 1815.52 1344.81 1855.75 1160.89 1816.58 964.158 C 1811.91 940.711 1794.61 871.094 1782.37 853.401 C 1776.24 844.543 1723.12 805.719 1711.21 797.824 C 1717.68 814.249 1724.94 831.417 1730.57 848.061 C 1757.24 926.86 1770.83 1008.34 1772.97 1091.43 C 1773.59 1115.41 1772.44 1146.47 1767.43 1169.91 C 1758.63 1145.72 1747.83 1138.95 1736.64 1120.45 C 1736.7 1105.34 1737.96 1053.16 1730.36 1044.78 C 1658.47 965.467 1489.81 910.41 1396.21 892.416 C 1403.78 884.579 1407.67 875.499 1416.78 868.151 C 1469.6 874.274 1497.28 887.742 1548.81 860.971 C 1599.75 834.504 1635.3 831.7 1690.23 847.253 C 1679.48 817.522 1670.04 796.141 1656.42 768.241 C 1674.86 763.057 1691.01 753.385 1705.51 740.929 C 1723.53 758.505 1740.07 779.838 1759.94 798.981 C 1750.68 778.34 1732.92 746.848 1720.91 728.071 C 1734.42 716.075 1741.99 705.606 1751.57 690.842 z"/>
<path transform="translate(0,0)" fill="rgb(254,254,254)" d="M 1623.42 866.345 C 1649.31 862.31 1677.6 873.294 1700.69 883.263 C 1717.32 919.906 1725.83 967.103 1731.47 1006.48 C 1718.76 995.188 1691.9 976.727 1677.44 967.529 C 1647.62 949.015 1611.69 931.142 1579.28 917.678 C 1563.59 911.16 1546.37 905.85 1530.25 899.492 C 1562.73 889.185 1589.23 870.911 1623.42 866.345 z"/>
<path transform="translate(0,0)" fill="rgb(47,88,61)" d="M 1620.08 1472.89 C 1639.34 1473.69 1645.28 1473.2 1664.22 1469.03 C 1646.46 1506.49 1599.78 1562.57 1572.26 1594.1 C 1563.83 1601.71 1555.76 1610.55 1547.72 1618.68 C 1473.94 1693.36 1382.07 1753.31 1282.95 1788.25 C 1272.25 1792.02 1261.51 1795.51 1250.83 1799.26 C 1248.75 1788.96 1247.69 1778.97 1245.29 1767.71 C 1267.66 1758 1290.55 1749.96 1312.7 1739.82 C 1323.39 1734.92 1333.97 1729.61 1344.5 1724.38 C 1330.56 1722.37 1318.96 1721.51 1304.62 1718.26 C 1273.33 1711.17 1238.85 1695.97 1211.8 1678.77 C 1224.52 1673.63 1228.48 1671.78 1236.86 1661.19 C 1240.73 1662.59 1246.96 1665.44 1250.72 1667.36 C 1308.77 1696.99 1382.53 1710.29 1437.77 1667.17 C 1465.18 1645.78 1500.62 1620.73 1524.13 1595.14 C 1423.92 1633.53 1315.61 1610.39 1223.77 1561.12 C 1195 1545.7 1165.57 1531.11 1134.23 1521.72 C 1141.81 1513.12 1147.62 1505.72 1154.57 1496.65 C 1177.18 1505.98 1198.97 1515.04 1221.26 1525.25 C 1246.82 1536.97 1274.2 1552.47 1300.05 1562.71 C 1357.83 1585.6 1429.87 1592.9 1490.12 1576.6 C 1551.9 1559.89 1588.81 1527.38 1620.08 1472.89 z"/>
<path transform="translate(0,0)" fill="rgb(169,21,40)" d="M 1331.29 1316.11 C 1343.61 1313.75 1356.29 1314.05 1368.48 1316.97 C 1412.39 1327.5 1441.29 1369.46 1435.47 1414.24 C 1429.65 1459.03 1390.98 1492.2 1345.83 1491.16 C 1300.69 1490.11 1263.6 1455.17 1259.86 1410.17 C 1256.12 1365.17 1286.93 1324.59 1331.29 1316.11 z"/>
<path transform="translate(0,0)" fill="rgb(254,254,254)" d="M 1332.87 1342.08 C 1337.49 1341.89 1346.73 1340.69 1347.7 1346.65 C 1343.32 1355.32 1328.45 1359.79 1320.15 1366.79 C 1311.91 1373.73 1310.92 1374.85 1304.35 1383.6 L 1296.01 1394.63 C 1294.67 1366.84 1306.62 1350.59 1332.87 1342.08 z"/>
<path transform="translate(0,0)" fill="rgb(169,21,40)" d="M 1449.72 1203.34 C 1482.94 1173.31 1533.47 1173.19 1566.83 1203.07 C 1600.19 1232.95 1605.61 1283.19 1579.39 1319.5 C 1553.17 1355.81 1503.78 1366.47 1464.92 1344.21 C 1426.06 1321.95 1410.28 1273.94 1428.34 1232.96 C 1433.3 1221.7 1440.59 1211.6 1449.72 1203.34 z"/>
<path transform="translate(0,0)" fill="rgb(254,254,254)" d="M 1492.02 1210.19 C 1497.21 1209.95 1508.08 1208.25 1509.16 1214.65 C 1504.53 1223.24 1488.73 1227.55 1481.19 1234.3 C 1474.13 1240.63 1469.56 1246.62 1463.82 1254.11 L 1456.95 1265.9 C 1456.65 1264.64 1456.36 1263.38 1456.09 1262.12 C 1453.54 1250.41 1454.63 1240.86 1461.5 1230.66 C 1468.63 1220.13 1479.58 1212.79 1492.02 1210.19 z"/>
<path transform="translate(0,0)" fill="rgb(169,21,40)" d="M 1453.13 1078.88 C 1453.48 1034.44 1487.71 997.627 1532.01 994.056 C 1576.31 990.484 1616 1021.34 1623.46 1065.15 C 1630.92 1108.96 1603.69 1151.22 1560.71 1162.51 C 1517.73 1173.81 1473.23 1150.41 1458.19 1108.59 C 1454.76 1099.06 1453.05 1089.01 1453.13 1078.88 z"/>
<path transform="translate(0,0)" fill="rgb(254,254,254)" d="M 1519.23 1025.28 C 1525.53 1024.7 1535.36 1023.91 1539.84 1029.02 C 1537.53 1036.03 1519.25 1041.45 1511.82 1047.78 C 1504.45 1054.05 1504.37 1053.84 1498.08 1061.66 C 1495.11 1066 1492.21 1070.37 1489.36 1074.78 C 1487.51 1048.31 1493.79 1035 1519.23 1025.28 z"/>
<path transform="translate(0,0)" fill="rgb(169,21,40)" d="M 1657.35 1131.38 C 1756.01 1124.1 1789.42 1270.89 1676.84 1294.71 C 1657.75 1297.32 1631.67 1295.46 1617.84 1280.45 C 1616.27 1231.88 1610.86 1228.96 1583.95 1190.68 C 1587.04 1179.99 1592.26 1170.02 1599.29 1161.39 C 1615 1142.38 1633.27 1133.82 1657.35 1131.38 z"/>
<path transform="translate(0,0)" fill="rgb(254,254,254)" d="M 1655.49 1160.13 C 1663.72 1159.65 1677.6 1158.91 1681.93 1167.84 L 1681.27 1169.72 C 1677.32 1171.06 1678.01 1170.46 1673.25 1169.45 C 1667.37 1167.78 1650.48 1168.9 1647.07 1164.65 C 1649.05 1161.82 1652.07 1161.33 1655.49 1160.13 z"/>
<path transform="translate(0,0)" fill="rgb(169,21,40)" d="M 1451.47 1362.65 C 1460.13 1365.29 1468.16 1369.1 1477.18 1371.76 C 1504.63 1379.87 1528.84 1378.09 1554.9 1366.94 C 1573.07 1390.53 1583.33 1411.89 1579.85 1442.75 C 1577.23 1465.96 1564.81 1485.58 1546.5 1499.78 C 1506.15 1527.12 1456.19 1516.99 1428.72 1476.96 C 1449.14 1448.85 1459.21 1428.15 1456.12 1391.93 C 1455.29 1382.19 1452.88 1372.43 1451.47 1362.65 z"/>
<path transform="translate(0,0)" fill="rgb(169,21,40)" d="M 1613.51 1304.06 C 1618.32 1306.04 1623.17 1307.92 1628.06 1309.69 C 1653.31 1318.62 1677.93 1317.48 1702.06 1305.93 C 1731.46 1337.94 1734.42 1388.44 1704.36 1421.24 C 1699.16 1426.92 1692.94 1430.83 1686.54 1435.03 C 1679.46 1439.55 1671.63 1442.77 1663.43 1444.54 C 1640.52 1449.61 1621.03 1446.01 1601.59 1433.47 C 1600.44 1398.88 1595.46 1385.27 1574.77 1356.67 C 1595.26 1336.9 1601.6 1330.38 1613.51 1304.06 z"/>
<path transform="translate(0,0)" fill="rgb(47,88,61)" d="M 1092.77 1219.23 C 1105.02 1218.21 1103.2 1258.85 1101.78 1267.15 C 1096.36 1298.83 1077.47 1319.79 1051.97 1337.52 C 973.73 1392.2 874.215 1387.59 785.266 1410.42 C 743.565 1421.12 708.208 1441.98 673.458 1466.64 C 671.402 1467.77 672.474 1467.51 670.269 1467.53 C 677.891 1454.79 698.614 1436.64 709.25 1426.29 C 773.278 1363.93 853.801 1371.2 936.269 1354.88 C 957.929 1350.66 979.039 1343.98 999.191 1334.99 C 1026.21 1323.15 1061 1301.99 1072.03 1272.93 C 1077.78 1257.43 1077.24 1240.3 1070.52 1225.19 C 1078.14 1222.81 1085 1221.12 1092.77 1219.23 z"/>
<path transform="translate(0,0)" fill="rgb(47,88,61)" d="M 1184.6 1203.42 C 1193.07 1203.22 1201.53 1203.1 1210 1203.06 C 1223.77 1220.23 1229.16 1247.53 1230.12 1268.94 C 1232.34 1318.39 1208.71 1363.12 1175.61 1398.36 C 1167.07 1407.45 1128.76 1447.31 1119.61 1447.63 C 1109.9 1442.84 1101.48 1437.26 1090.86 1432.24 C 1125.34 1402.63 1160.08 1378.32 1183.88 1337.34 C 1202.39 1305.48 1207.7 1269.94 1195.5 1234.8 C 1192.33 1225.67 1185.48 1213.15 1183.32 1204.99 L 1184.6 1203.42 z"/>
<path transform="translate(0,0)" fill="rgb(47,88,61)" d="M 814.533 1429.38 C 822.27 1428.08 837.971 1428.82 846.217 1429.22 C 815.639 1437.82 781.918 1447.57 755.834 1466.66 C 747.823 1472.52 737.392 1483.14 729.863 1490.27 C 725.822 1490.08 720.355 1488.98 716.247 1488.29 C 705.271 1486.38 695.797 1485.44 684.762 1484.66 C 721.542 1460.17 770.205 1434.01 814.533 1429.38 z"/>
<path transform="translate(0,0)" fill="rgb(254,254,254)" d="M 909.308 320.837 C 927.107 338.047 948.021 361.963 965.654 380.491 C 974.534 421.609 972.3 429.062 997.344 465.895 C 966.414 455.963 933.195 455.67 902.094 465.055 C 901.876 479.384 902.381 492.553 905.966 506.435 C 922.996 572.373 950.394 598.609 1005.41 632.754 C 978.491 633.206 935.755 643.785 911.82 656.616 C 915.634 667.398 925.387 684.836 931.63 695.036 C 951.547 727.054 979.182 753.56 1012 772.127 C 1055.18 796.883 1136.35 815.462 1161.13 862.054 C 1178.01 898.24 1166.83 947.441 1155.45 982.557 C 1119.45 1093.69 1018.85 1143.05 921.834 1193.59 C 881.247 1214.87 840.309 1235.47 799.038 1255.38 C 805.445 1228.85 817.627 1178.86 809.255 1151.84 C 807.225 1145.29 796.036 1145.7 791.881 1153.44 C 785.143 1165.97 784.314 1179.81 780.463 1193.39 C 775.453 1211.08 769.55 1228.16 759.759 1243.82 C 733.226 1289.21 687.681 1317.46 646.279 1347.77 C 631.008 1358.94 616.091 1370.45 600.939 1381.77 C 606.459 1360.97 609.348 1346.77 611.532 1325.45 C 614.091 1300.48 611.661 1272.5 621.014 1249.27 C 628.233 1231.34 638.871 1214.9 649.86 1199.14 C 674.898 1163.36 698.184 1130.97 707.852 1087.04 C 719.186 1035.53 712.161 976.817 687.586 929.765 C 682.843 920.685 673.851 927.628 667.372 930.949 C 643.246 943.317 626.135 961.878 608.097 981.557 C 618.257 924.841 600.477 861.608 559.295 820.859 C 556.172 817.822 543.105 802.467 538.073 805.95 C 521.116 817.688 503.427 849.312 496.168 867.291 C 491.702 858.064 484.636 842.874 478.752 835.008 C 444.459 789.164 384.999 764.386 330.16 755.827 C 317.692 818.139 315.773 859.72 345.678 917.543 C 323.475 913.662 296.725 913.056 274.857 919.094 C 274.206 932.792 275.276 946.516 278.042 959.947 C 289.524 1016.03 319.176 1038.13 364.209 1067.89 C 359.602 1067.71 354.99 1067.67 350.381 1067.78 C 332.405 1068.24 281.755 1080.46 270.158 1092.7 C 268.704 1098.68 272.091 1104.97 274.26 1110.58 C 302.891 1184.67 372.516 1234.39 450.524 1244.34 C 492.961 1249.75 514.667 1245.53 555.643 1262.29 C 556.828 1254.76 557.454 1247.16 557.517 1239.55 C 558.125 1141.35 390.083 1169.06 350.866 1129.26 C 364.102 1132.92 377.296 1136.81 390.925 1138.5 C 425.782 1142.81 459.648 1142.43 493.463 1153.19 C 513.419 1159.53 527.493 1168.61 545.954 1177.8 C 543.13 1152.41 535.764 1134.72 529.312 1112.64 C 507.058 1036.48 457.789 1023.28 390.874 997.472 C 372.891 990.535 353.578 979.714 338.387 966.49 C 372.553 983.51 400.523 990.854 436.708 1000.81 C 452.975 1005.29 476.376 1017.06 491.666 1024.85 C 462.272 957.339 423.76 899.685 386.924 836.942 L 389.033 836.084 C 472.393 940.356 540.655 1049.56 567.612 1181.72 C 576.568 1225.63 582.902 1269.6 577.682 1314.65 C 573.099 1352.85 560.349 1389.62 540.297 1422.45 C 526.875 1444.08 507.271 1462.08 490.79 1481.39 C 457.925 1519.92 382.683 1613.91 383.307 1664.49 C 383.601 1688.31 391.299 1713.05 400.583 1734.83 C 403.144 1740.84 408.194 1747.51 409.624 1753.7 C 394.667 1742.04 390.449 1730.9 370.814 1719.09 C 357.637 1693.75 345.776 1610.42 346.847 1582.26 C 349.861 1583.41 350.278 1583.89 353.468 1583.4 C 355.276 1580.65 354.586 1578.34 352.775 1575.63 C 341.602 1558.9 330.328 1540.36 319.735 1523.39 C 303.699 1497.43 289.1 1470.6 276.004 1443.03 C 222.913 1331.61 196.606 1204.47 204.384 1080.35 C 206.958 1039.28 218.615 946.08 237.955 907.554 C 243.613 896.283 292.458 852.255 305.107 841.213 C 305.039 825.571 305.298 813.875 307.391 798.149 C 290.734 814.095 275.627 832.014 258.958 848.314 C 285.28 786.89 314.919 738.056 352.983 683.844 C 363.056 691.875 369.908 697.463 380.864 704.359 C 374.94 713.473 360.849 729.524 353.123 739.996 C 366.326 743.572 379.622 748.361 392.386 753.251 C 401.688 744.315 414.686 727.754 423.231 717.404 L 468.084 663.643 C 503.253 621.653 542.651 578.229 576.234 535.911 C 565.18 573.586 552.576 622.038 545.007 660.57 C 555.856 646.46 565.647 621.598 573.405 604.972 C 592.221 564.648 608.43 520.262 627.751 480.492 C 649.273 496.778 682.234 529.305 703.386 548.319 C 717.577 534.334 739.302 508.056 753.117 492.557 L 864.16 367.267 C 850.219 403.917 832.416 439.25 816.244 474.95 C 804.287 501.346 813.767 503.651 823.012 526.224 L 823.52 527.493 C 819.327 535.165 804.356 554.781 798.464 562.986 C 782.791 584.712 767.284 606.556 751.944 628.518 C 743.532 640.672 732.305 656.574 725.447 669.134 C 756.423 639.29 786.684 605.656 816.846 574.757 C 826.382 564.988 856.44 533.784 862.581 523.92 C 857.457 512.145 841.262 493.628 844.874 481.253 C 849.674 464.81 858.084 445.776 864.588 429.681 C 879.227 393.29 894.134 357.008 909.308 320.837 z"/>
<path transform="translate(0,0)" fill="rgb(47,88,61)" d="M 455.183 786.107 C 474.132 769.093 492.697 750.929 513.165 735.765 C 528.215 724.616 545.007 716.027 559.547 704.18 C 585.329 683.173 608.21 657.7 634.876 637.967 C 638.623 635.195 643.422 631.707 648.314 632.172 C 667.448 633.99 747.958 734.627 766.678 736.731 C 770.754 737.189 775.655 733.721 778.804 731.449 C 794.808 719.9 816.409 697.659 831.835 688.936 C 852.432 700.461 887.652 736.69 906.641 753.628 C 922.274 767.574 937.06 773.603 951.766 784.927 C 977.464 804.716 994.827 827.655 1024.8 843.79 C 1041.61 852.642 1059.86 858.433 1078.69 860.892 C 1100.21 863.553 1126.51 854.401 1140.2 872.953 C 1143.85 877.907 1148.66 883.134 1145.69 889.544 C 1143.75 891.372 1141.85 891.753 1139.31 892.284 C 1127.68 894.72 1115.17 895.013 1103.35 896.609 C 1088.31 898.639 1073.23 902.341 1058.42 905.638 C 1028.65 912.267 874.923 952.66 874.768 984.253 C 874.745 988.868 878.048 992.545 881.372 995.342 C 895.894 1007.56 919.108 1012.13 936.944 1017.5 L 1014.16 1040.83 C 1029.88 1045.62 1067.84 1057.24 1081.16 1064.98 C 1074.61 1072.83 1068.34 1080.24 1060.01 1086.24 C 1016.13 1068.42 974.228 1058.06 929.417 1045.56 C 905.174 1038.79 857.034 1024.4 848.356 1000.05 C 831.101 951.642 905.496 928.372 938.039 914.626 C 947.148 910.778 969.555 903.1 977.044 901.539 L 976.639 898.395 C 924.992 907.563 817.789 936.455 782.217 978.755 C 775.837 986.341 773.017 1000.74 775.218 1010.9 C 779.555 1030.94 793.228 1040.29 808.193 1050.94 C 855.328 1084.47 945.497 1093.43 986.786 1131.05 C 977.335 1138.62 968.194 1143.3 957.428 1148.85 C 936.565 1136.28 921.156 1128.56 897.59 1119.63 C 842.589 1098.78 766.43 1079.93 747.516 1015.81 C 743.709 1002.9 747.396 984.71 755.198 973.324 C 790.208 922.233 889.187 899.914 945.597 886.007 C 965.533 881.093 1007.11 874.177 1026.42 872.385 C 1004.63 863.775 988.394 856.146 970.81 840.054 C 963.367 833.242 949.811 818.894 942.118 813.782 C 913.89 795.028 890.352 779.275 867.131 753.985 C 858.817 744.931 842.818 732.519 832.991 723.987 C 804.395 743.964 783.792 772.571 758.974 794.93 C 719.959 830.081 674.462 863.78 638.712 902.788 C 634.868 894.701 630.892 886.677 626.785 878.721 C 638.573 867.93 650.064 856.503 661.399 845.208 C 690.064 816.644 720.981 790.5 748.973 761.292 C 740.713 753.963 731.598 747.156 722.825 740.414 C 698.432 721.67 680.079 694.934 655.944 676.152 C 646.199 711.518 638.984 746.941 614.527 775.716 C 603.165 789.084 592.113 806.768 575.357 788.578 L 576.009 787.585 C 585.367 773.566 597.76 761.004 605.784 745.488 C 615.953 725.823 619.761 703.69 627.401 682.242 L 626.331 683.125 C 611.242 695.717 598.59 712.782 581.987 724.243 C 576.695 727.896 571.562 733.05 566.197 736.745 C 554.882 746.566 541.104 751.244 529.159 759.934 C 512.07 774.031 499.3 789.581 480.054 802.617 C 471.768 797.886 463.103 791.582 455.183 786.107 z"/>
<path transform="translate(0,0)" fill="rgb(194,222,201)" d="M 976.639 898.395 L 994.997 895.552 C 989.036 897.617 983.051 899.613 977.044 901.539 L 976.639 898.395 z"/>
<path transform="translate(0,0)" fill="rgb(47,88,61)" d="M 296.03 1198.45 C 299.462 1200.54 310.981 1211.34 314.843 1214.66 C 322.915 1221.61 329.375 1226.3 337.988 1232.48 C 351.717 1309.21 372.544 1362.98 409.721 1430.92 C 435.567 1381.26 504.918 1325.38 553.302 1298.05 C 549.627 1339.99 546.417 1338.03 513.091 1362.21 C 473.6 1390.03 448.633 1424.03 431.588 1468.93 C 434.309 1478 439.733 1488.17 443.131 1497.96 C 438.598 1505.22 431.365 1514.76 426.263 1521.92 C 351.033 1425.26 313.105 1319.18 296.03 1198.45 z"/>
<path transform="translate(0,0)" fill="rgb(47,88,61)" d="M 738.741 1217.01 C 739.493 1220.37 738.158 1223.27 736.752 1226.29 C 732.445 1235.54 728.166 1244.1 720.439 1251.03 C 708.129 1262.08 661.108 1277.75 643.306 1284.15 C 642.337 1275.09 645.849 1254.08 653.401 1250.11 C 679.114 1236.6 712.163 1228.51 738.741 1217.01 z"/>
<path transform="translate(0,0)" fill="rgb(254,254,254)" d="M 1052.99 366.822 C 1080.57 409.38 1105.33 453.705 1127.1 499.51 C 1138.29 522.727 1150.86 554.451 1162.28 575.764 C 1174.7 536.61 1189.42 507.737 1209.81 472.484 C 1216.27 461.315 1222.26 442.884 1226.81 430.398 C 1224.41 450.596 1218.27 472.857 1210.69 491.523 C 1194.89 530.478 1172.16 569.483 1177.33 613.208 C 1179.22 629.139 1186.82 653.748 1191.57 669.762 C 1197.12 688.492 1201.38 717.8 1209.25 734.452 C 1218.47 716.906 1227.22 699.663 1239.59 684.061 C 1252.11 668.272 1266.18 654.011 1278.92 638.397 C 1286.55 629.038 1291.88 617.37 1298.93 608.161 C 1283.62 669.927 1224.71 707.474 1216.63 773.458 C 1213.81 796.552 1219.12 825.13 1220.11 848.976 C 1269.99 774.712 1339.68 719.397 1346.16 624.196 C 1348.17 594.518 1350.34 557.967 1339.96 529.901 C 1315.36 535.838 1284.44 548.697 1264.57 564.07 C 1275.24 538.251 1282.26 516.535 1283.28 488.021 C 1301.34 472.778 1318.15 457.275 1335.91 441.961 C 1351.22 492.999 1363.01 538.543 1382.49 588.617 C 1379.64 549.755 1372.11 497.881 1366.61 458.522 L 1418.96 512.713 C 1429.04 499.043 1435.99 490.979 1447.97 478.382 C 1452.81 482.264 1456.83 485.977 1461.39 490.175 C 1384.08 566.63 1392.29 651.113 1401.3 749.499 C 1409.97 740.246 1437.58 708.098 1442.97 698.568 C 1469.07 652.407 1446.39 584.927 1471.89 538.386 C 1463.18 584.73 1476.11 624.562 1469.37 667.541 C 1481.33 657.287 1494.8 642.478 1507.69 631.042 C 1548.34 594.521 1592.96 562.689 1640.72 536.143 C 1652.1 529.87 1664.96 522.591 1677.19 518.408 C 1600.78 568.581 1531.57 627.57 1470.93 696.059 C 1424.71 748.245 1388.81 806.065 1346.5 860.828 C 1316.31 899.213 1283.86 935.771 1249.33 970.31 C 1233.71 986.047 1198.02 1019.39 1179.45 1031.9 C 1208.7 939.235 1210.95 893.432 1197.37 796.854 C 1175.71 642.913 1119.64 507.54 1051.86 369.206 L 1052.99 366.822 z"/>
<path transform="translate(0,0)" fill="rgb(47,88,61)" d="M 1314.17 851.423 L 1317.16 851.263 L 1318 852.253 C 1316.5 858.954 1301.68 878.806 1295.83 881.135 C 1278.97 887.856 1254.33 884.343 1235.77 886.264 C 1233.2 886.356 1234.09 886.489 1231.74 885.632 C 1229.11 879.98 1236.46 858.858 1243.93 857.514 C 1254.59 855.597 1265.91 855.38 1276.75 854.738 C 1289.26 854.104 1301.74 852.998 1314.17 851.423 z"/>
<path transform="translate(0,0)" fill="rgb(254,254,254)" d="M 500.754 1623.6 C 509.232 1612.83 517.502 1601.37 527.675 1592.19 C 562.148 1561.62 600.01 1544.6 645.075 1538.36 C 730.224 1526.56 735.86 1580.88 747.039 1648.63 C 751.729 1677.05 760.996 1708.22 775.725 1733.17 C 778.997 1738.71 789.06 1751.74 790.664 1756.76 C 780.931 1749.55 758.224 1744.04 745.361 1739.98 C 750.652 1750.34 769.9 1779.3 771.835 1785.58 L 769.831 1786.23 C 763.297 1785.48 739.619 1775.17 732.23 1771.99 C 677.475 1747.89 626.275 1716.42 580.054 1678.44 C 565.396 1666.59 549.615 1650.94 535.533 1640.16 L 534.654 1639.5 C 523.028 1633.86 512.839 1628.32 500.754 1623.6 z"/>
<path transform="translate(0,0)" fill="rgb(47,88,61)" d="M 697.544 1567.17 C 705.208 1577.07 707.922 1581.64 711.678 1593.78 C 695.141 1602.3 678.87 1611.06 663.237 1621.17 C 645.288 1632.78 628.012 1645.59 609.63 1656.54 C 633.308 1677.5 677.857 1704.01 706.009 1719.63 C 715.478 1724.89 738.618 1734.9 745.361 1739.98 C 750.652 1750.34 769.9 1779.3 771.835 1785.58 L 769.831 1786.23 C 763.297 1785.48 739.619 1775.17 732.23 1771.99 C 677.475 1747.89 626.275 1716.42 580.054 1678.44 C 565.396 1666.59 549.615 1650.94 535.533 1640.16 L 534.654 1639.5 C 539.111 1617.21 574.405 1637.58 589.267 1631.72 C 609.808 1623.61 627.087 1608.44 646.342 1597.75 C 661.515 1588.61 684.512 1576.74 697.544 1567.17 z"/>
<path transform="translate(0,0)" fill="rgb(194,222,201)" d="M 376.111 820.412 C 381.693 826.323 384.235 829.493 389.033 836.084 L 386.924 836.942 C 383.315 831.685 379.156 825.95 376.111 820.412 z"/>
<path transform="translate(0,0)" fill="rgb(194,222,201)" d="M 1043.87 353.922 C 1048.28 359.179 1049.52 360.748 1052.99 366.822 L 1051.86 369.206 C 1049.87 366.239 1045.64 357.422 1043.87 353.922 z"/>
<path transform="translate(0,0)" fill="rgb(254,254,254)" d="M 796.969 1566.73 C 838.912 1577.13 839.35 1634.03 844.907 1669.38 C 849.075 1695.89 850.528 1720.66 856.238 1747.34 C 840.16 1731.26 830.366 1643.38 821.453 1614.79 C 816.152 1597.47 807.866 1581.2 796.969 1566.73 z"/>
<path transform="translate(0,0)" fill="rgb(254,254,254)" d="M 1001.53 692.22 C 1049.22 698.044 1100.89 708.437 1136.54 743.064 C 1145.43 751.699 1156.76 767.216 1160.19 779.127 C 1125.75 738.807 1085.76 722.664 1036.63 707.325 C 1026.54 704.174 1009.2 698.889 1001.53 692.22 z"/>
<path transform="translate(0,0)" fill="rgb(254,254,254)" d="M 661.383 1000.71 C 667.843 1030.71 633.624 1085.46 619.568 1110.61 C 611.159 1125.66 604.437 1143.61 597.44 1159.38 C 594.435 1150.31 599.938 1130.99 602.825 1122.08 C 612.448 1092.38 632.76 1068.06 647.139 1040.8 C 653.548 1028.65 657.927 1013.97 661.383 1000.71 z"/>
<path transform="translate(0,0)" fill="url(#Gradient2)" d="M 983.42 524.788 C 986.905 525.266 994.504 529.004 997.716 530.644 C 1036.6 550.491 1086.7 551.409 1114.8 588.869 C 1118.64 593.976 1121.94 598.147 1124.47 604.169 C 1115.33 599.195 1104.45 587.66 1091.21 580.588 C 1055.03 561.256 1014.21 552.326 983.42 524.788 z"/>
<path transform="translate(0,0)" fill="rgb(254,254,254)" d="M 1554.97 692.406 C 1572.17 691.069 1592.2 693.637 1609.52 694.51 C 1623.09 695.193 1635.78 695.099 1649.38 695.038 C 1623.44 703.242 1604.82 702.973 1578.07 703.1 C 1547.81 703.841 1525.41 707.618 1496.57 716.382 C 1514.4 700.417 1531.73 694.698 1554.97 692.406 z"/>
<path transform="translate(0,0)" fill="rgb(254,254,254)" d="M 946.633 1639.73 C 960.555 1644.59 974.438 1661.69 978.301 1675.79 C 986.855 1707.03 993.698 1737.44 1003.56 1768.44 C 998.779 1765.12 994.948 1757.06 992.24 1751.91 C 972.325 1713.99 971.892 1675.31 946.633 1639.73 z"/>
<path transform="translate(0,0)" fill="url(#Gradient1)" d="M 555.732 1459.95 L 556.462 1460.68 C 553.897 1465 532.312 1488.49 526.93 1495.11 C 496.853 1532.1 468.167 1564.8 442.317 1605.08 C 441.657 1604.34 442.077 1604.91 441.689 1603.06 C 456.661 1559.71 519.214 1487.41 555.732 1459.95 z"/>
<path transform="translate(0,0)" fill="rgb(254,254,254)" d="M 545.659 882.165 C 555.596 902.343 534.942 980.555 530.284 1005.28 C 520.143 980.113 533.436 941.756 539.463 917.318 C 542.314 905.756 543.799 893.955 545.659 882.165 z"/>
</svg>