<svg width="720" height="280" viewBox="0 0 720 280" fill="none" xmlns="http://www.w3.org/2000/svg">
  <title>Hawthorn Scapes logo</title>
  <rect width="720" height="280" fill="#F5F2EC"/>
  <g transform="translate(28 24)">
    <circle cx="102" cy="96" r="86" stroke="#1F5A48" stroke-width="6"/>
    <path d="M44 120C70 98 84 74 102 48C118 70 136 92 160 106" stroke="#174236" stroke-width="8" stroke-linecap="round"/>
    <path d="M66 86C78 80 92 84 98 96C84 102 72 98 66 86Z" fill="#3E7A5F"/>
    <path d="M104 72C116 66 132 70 140 84C126 90 112 86 104 72Z" fill="#3E7A5F"/>
    <path d="M82 114C94 108 110 114 116 126C102 132 88 126 82 114Z" fill="#3E7A5F"/>
    <circle cx="150" cy="132" r="10" fill="#B5233A"/>
    <circle cx="170" cy="122" r="10" fill="#B5233A"/>
    <circle cx="174" cy="144" r="10" fill="#B5233A"/>
    <path d="M36 66L62 40L88 58" stroke="#1F5A48" stroke-width="5" stroke-linecap="round" stroke-linejoin="round"/>
    <path d="M88 58L114 32L136 48" stroke="#1F5A48" stroke-width="5" stroke-linecap="round" stroke-linejoin="round"/>
  </g>
  <g transform="translate(240 88)">
    <text x="0" y="0" fill="#174236" font-size="72" font-family="Georgia, serif" font-weight="700" letter-spacing="2">HAWTHORN</text>
    <text x="4" y="62" fill="#1F5A48" font-size="60" font-family="Arial, sans-serif" font-weight="600" letter-spacing="10">SCAPES</text>
    <text x="4" y="96" fill="#1F2937" font-size="21" font-family="Arial, sans-serif" letter-spacing="2">COLORADO'S PREMIER LANDSCAPING</text>
  </g>
</svg>
