<svg width="220" height="220" viewBox="0 0 220 220" fill="none" xmlns="http://www.w3.org/2000/svg">
  <title>Hawthorn Scapes mark</title>
  <circle cx="110" cy="110" r="100" fill="#F5F2EC" stroke="#1F5A48" stroke-width="8"/>
  <path d="M42 136C70 112 86 84 108 54C126 80 146 106 178 124" stroke="#174236" stroke-width="10" stroke-linecap="round"/>
  <path d="M72 98C86 90 100 94 108 106C94 114 80 110 72 98Z" fill="#3E7A5F"/>
  <path d="M112 82C126 74 142 78 150 92C134 100 120 96 112 82Z" fill="#3E7A5F"/>
  <path d="M90 128C104 120 120 126 128 140C112 146 98 140 90 128Z" fill="#3E7A5F"/>
  <circle cx="154" cy="142" r="11" fill="#B5233A"/>
  <circle cx="176" cy="130" r="11" fill="#B5233A"/>
  <circle cx="180" cy="154" r="11" fill="#B5233A"/>
  <path d="M30 74L58 46L86 66" stroke="#1F5A48" stroke-width="6" stroke-linecap="round" stroke-linejoin="round"/>
  <path d="M86 66L116 34L140 52" stroke="#1F5A48" stroke-width="6" stroke-linecap="round" stroke-linejoin="round"/>
</svg>
